<?xml version="1.0" standalone="no"?>
<!DOCTYPE svg PUBLIC "-//W3C//DTD SVG 20010904//EN"
 "http://www.w3.org/TR/2001/REC-SVG-20010904/DTD/svg10.dtd">
<svg version="1.0" xmlns="http://www.w3.org/2000/svg"
 width="813.000000pt" height="813.000000pt" viewBox="0 0 813.000000 813.000000"
 preserveAspectRatio="xMidYMid meet">
<metadata>
Created by potrace 1.14, written by Peter Selinger 2001-2017
</metadata>
<g transform="translate(0.000000,813.000000) scale(0.100000,-0.100000)"
fill="#000000" stroke="none">
<path d="M0 4065 l0 -4065 4065 0 4065 0 0 4065 0 4065 -4065 0 -4065 0 0
-4065z m1800 1100 l0 -1185 223 0 222 0 389 595 c214 328 393 598 397 600 10
7 646 -57 660 -66 7 -4 -106 -182 -282 -445 -161 -242 -361 -543 -445 -671
l-152 -231 529 -953 c291 -523 529 -956 529 -961 0 -4 -166 -8 -369 -8 l-369
0 -440 783 -440 782 -223 0 -224 0 -3 -782 -2 -783 -330 0 -330 0 0 2255 0
2255 330 0 330 0 0 -1185z m3240 460 c0 -399 2 -725 4 -725 2 0 44 25 92 56
376 237 731 325 1044 259 460 -98 728 -475 801 -1125 15 -133 14 -527 0 -690
-99 -1076 -597 -1620 -1486 -1620 -337 1 -710 85 -1012 230 l-103 49 0 2145 0
2146 330 0 330 0 0 -725z"/>
<path d="M5631 4669 c-131 -22 -322 -104 -502 -215 l-89 -55 2 -987 3 -986 80
-34 c344 -145 675 -112 875 87 210 210 302 561 301 1146 -1 427 -50 687 -163
855 -108 162 -281 226 -507 189z"/>
</g>
</svg>
