<?xml version="1.0" encoding="UTF-8" standalone="no"?>
<svg
   width="217px"
   height="29px"
   viewBox="0 0 217 29"
   version="1.1"
   id="svg12"
   sodipodi:docname="logo.svg"
   inkscape:version="1.2.2 (b0a8486541, 2022-12-01)"
   inkscape:export-filename="logo.png"
   inkscape:export-xdpi="2000"
   inkscape:export-ydpi="2000"
   xmlns:inkscape="http://www.inkscape.org/namespaces/inkscape"
   xmlns:sodipodi="http://sodipodi.sourceforge.net/DTD/sodipodi-0.dtd"
   xmlns:xlink="http://www.w3.org/1999/xlink"
   xmlns="http://www.w3.org/2000/svg"
   xmlns:svg="http://www.w3.org/2000/svg"
   xmlns:rdf="http://www.w3.org/1999/02/22-rdf-syntax-ns#"
   xmlns:cc="http://creativecommons.org/ns#"
   xmlns:dc="http://purl.org/dc/elements/1.1/">
  <metadata
     id="metadata16">
    <rdf:RDF>
      <cc:Work
         rdf:about="">
        <dc:format>image/svg+xml</dc:format>
        <dc:type
           rdf:resource="http://purl.org/dc/dcmitype/StillImage" />
        <dc:title>logo</dc:title>
      </cc:Work>
    </rdf:RDF>
  </metadata>
  <sodipodi:namedview
     pagecolor="#ffffff"
     bordercolor="#666666"
     borderopacity="1"
     objecttolerance="10"
     gridtolerance="10"
     guidetolerance="10"
     inkscape:pageopacity="0"
     inkscape:pageshadow="2"
     inkscape:window-width="1920"
     inkscape:window-height="1001"
     id="namedview14"
     showgrid="false"
     inkscape:zoom="5.7480937"
     inkscape:cx="21.137443"
     inkscape:cy="-0.26095608"
     inkscape:window-x="-9"
     inkscape:window-y="-9"
     inkscape:window-maximized="1"
     inkscape:current-layer="svg12"
     showguides="false"
     inkscape:showpageshadow="2"
     inkscape:pagecheckerboard="0"
     inkscape:deskcolor="#d1d1d1" />
  <!-- Generator: Sketch 51.3 (57544) - http://www.bohemiancoding.com/sketch -->
  <title
     id="title2">logo</title>
  <desc
     id="desc4">Created with Sketch.</desc>
  <defs
     id="defs6">
    <clipPath
       clipPathUnits="userSpaceOnUse"
       id="clipPath1127">
      <rect
         style="display:inline;fill:none;fill-opacity:1;stroke:#808080;stroke-width:0.09999999;stroke-linecap:round;stroke-linejoin:round;stroke-miterlimit:4;stroke-dasharray:none;stroke-opacity:1"
         id="rect1129"
         width="33.381001"
         height="33.381001"
         x="162.687"
         y="350.97299" />
    </clipPath>
    <clipPath
       clipPathUnits="userSpaceOnUse"
       id="clipPath931">
      <rect
         style="opacity:0.98999999;fill:none;fill-opacity:1;stroke:#000000;stroke-width:0.30000001;stroke-miterlimit:4;stroke-dasharray:none"
         id="rect933"
         width="28.299999"
         height="28.299999"
         x="-0.070999995"
         y="0.31000075" />
    </clipPath>
    <clipPath
       clipPathUnits="userSpaceOnUse"
       id="clipPath931-9">
      <rect
         style="opacity:0.98999999;fill:none;fill-opacity:1;stroke:#000000;stroke-width:0.30000001;stroke-miterlimit:4;stroke-dasharray:none"
         id="rect933-2"
         width="28.299999"
         height="28.299999"
         x="-0.070999995"
         y="0.31000075" />
    </clipPath>
    <clipPath
       clipPathUnits="userSpaceOnUse"
       id="clipPath931-1">
      <rect
         style="opacity:0.98999999;fill:none;fill-opacity:1;stroke:#000000;stroke-width:0.30000001;stroke-miterlimit:4;stroke-dasharray:none"
         id="rect933-4"
         width="28.299999"
         height="28.299999"
         x="-0.070999995"
         y="0.31000075" />
    </clipPath>
    <clipPath
       clipPathUnits="userSpaceOnUse"
       id="clipPath931-1-1">
      <rect
         style="opacity:0.98999999;fill:none;fill-opacity:1;stroke:#000000;stroke-width:0.30000001;stroke-miterlimit:4;stroke-dasharray:none"
         id="rect933-4-8"
         width="28.299999"
         height="28.299999"
         x="-0.070999995"
         y="0.31000075" />
    </clipPath>
    <pattern
       patternUnits="userSpaceOnUse"
       width="104.68955"
       height="104.91736"
       patternTransform="translate(-25.344204,-25.472481)"
       id="pattern5086">
      <g
         id="g23186"
         transform="matrix(3.7795276,0,0,3.7795276,25.344204,-280.66925)">
        <path
           id="rect6971"
           style="fill:url(#radialGradient8085);stroke-width:0.264584;paint-order:markers stroke fill"
           d="M 0,81 H 14.2875 V 95.2875 H 0 Z" />
        <path
           id="rect19225"
           style="fill:url(#radialGradient19227);stroke-width:0.264583;paint-order:markers stroke fill"
           d="m -6.7056541,74.260406 h 13.776699 v 13.7767 h -13.776699 z" />
        <path
           id="rect19225-8"
           style="opacity:1;fill:url(#radialGradient19227-2);stroke-width:0.264583;paint-order:markers stroke fill"
           d="M 0.94376874,81.940933 H 4.6176798 v 3.673911 H 0.94376874 Z" />
        <path
           id="rect20836"
           style="fill:url(#radialGradient20842);stroke-width:0.264583;paint-order:markers stroke fill"
           d="M 7.2167563,74.260406 H 20.993455 v 13.7767 H 7.2167563 Z" />
        <path
           id="rect20838"
           style="opacity:1;fill:url(#radialGradient20840);stroke-width:0.264583;paint-order:markers stroke fill"
           d="m 9.622674,81.940933 h 3.673911 v 3.673911 H 9.622674 Z" />
        <path
           id="rect20856"
           style="fill:url(#radialGradient20858);stroke-width:0.264583;paint-order:markers stroke fill"
           d="M 7.2167563,88.243088 H 20.993455 V 102.01979 H 7.2167563 Z" />
        <path
           id="rect20844"
           style="opacity:1;fill:url(#radialGradient20846);stroke-width:0.264583;paint-order:markers stroke fill"
           d="m 9.622674,90.55957 h 3.673911 v 3.673911 H 9.622674 Z" />
        <path
           id="rect20852"
           style="fill:url(#radialGradient20854);stroke-width:0.264583;paint-order:markers stroke fill"
           d="M -6.7056541,88.243088 H 7.0710449 V 102.01979 H -6.7056541 Z" />
        <path
           id="rect20848"
           style="opacity:1;fill:url(#radialGradient20850);stroke-width:0.264583;paint-order:markers stroke fill"
           d="m 1.1245793,90.55957 h 3.6739111 v 3.673911 H 1.1245793 Z" />
      </g>
    </pattern>
    <radialGradient
       inkscape:collect="always"
       xlink:href="#linearGradient8083"
       id="radialGradient8085"
       cx="-9.8075666"
       cy="87.923416"
       fx="-9.8075666"
       fy="87.923416"
       r="7.924634"
       gradientUnits="userSpaceOnUse"
       gradientTransform="matrix(0.90146119,0,0,0.90146119,15.98489,8.8842092)" />
    <linearGradient
       inkscape:collect="always"
       id="linearGradient8083">
      <stop
         style="stop-color:#e58d94;stop-opacity:1;"
         offset="0"
         id="stop8079" />
      <stop
         style="stop-color:#e58d94;stop-opacity:1;"
         offset="0.25290486"
         id="stop12820" />
      <stop
         style="stop-color:#a56e92;stop-opacity:1;"
         offset="0.39074549"
         id="stop17124" />
      <stop
         style="stop-color:#715692;stop-opacity:1;"
         offset="0.45244214"
         id="stop13258" />
      <stop
         style="stop-color:#162b91;stop-opacity:1;"
         offset="0.53984576"
         id="stop8087" />
      <stop
         style="stop-color:#162b91;stop-opacity:0.97872335;"
         offset="1"
         id="stop8081" />
    </linearGradient>
    <radialGradient
       inkscape:collect="always"
       xlink:href="#linearGradient19319"
       id="radialGradient19227"
       gradientUnits="userSpaceOnUse"
       cx="-9.8075666"
       cy="87.923416"
       fx="-9.8075666"
       fy="87.923416"
       r="7.924634"
       gradientTransform="matrix(0.86923247,0,0,0.86923247,8.7077522,4.7228724)" />
    <linearGradient
       inkscape:collect="always"
       id="linearGradient19319">
      <stop
         style="stop-color:#e58d94;stop-opacity:1;"
         offset="0"
         id="stop19307" />
      <stop
         style="stop-color:#e58d94;stop-opacity:1;"
         offset="0.20406169"
         id="stop19309" />
      <stop
         style="stop-color:#a56e92;stop-opacity:1;"
         offset="0.30591258"
         id="stop19311" />
      <stop
         style="stop-color:#715692;stop-opacity:1;"
         offset="0.46786633"
         id="stop19313" />
      <stop
         style="stop-color:#162b91;stop-opacity:1;"
         offset="0.65295631"
         id="stop19315" />
      <stop
         style="stop-color:#162b91;stop-opacity:0;"
         offset="1"
         id="stop19317" />
    </linearGradient>
    <radialGradient
       inkscape:collect="always"
       xlink:href="#linearGradient20106"
       id="radialGradient19227-2"
       gradientUnits="userSpaceOnUse"
       cx="-9.8075666"
       cy="87.923416"
       fx="-9.8075666"
       fy="87.923416"
       r="7.924634"
       gradientTransform="matrix(0.23180319,0,0,0.23180319,5.0541505,63.396971)" />
    <linearGradient
       inkscape:collect="always"
       id="linearGradient20106">
      <stop
         style="stop-color:#00dcc8;stop-opacity:1;"
         offset="0"
         id="stop20094" />
      <stop
         style="stop-color:#00dcc8;stop-opacity:1;"
         offset="0.26061696"
         id="stop20096" />
      <stop
         style="stop-color:#162b91;stop-opacity:0;"
         offset="1"
         id="stop20104" />
    </linearGradient>
    <radialGradient
       inkscape:collect="always"
       xlink:href="#linearGradient19319"
       id="radialGradient20842"
       gradientUnits="userSpaceOnUse"
       gradientTransform="matrix(0.86923247,0,0,0.86923247,22.630163,4.7228724)"
       cx="-9.8075666"
       cy="87.923416"
       fx="-9.8075666"
       fy="87.923416"
       r="7.924634" />
    <radialGradient
       inkscape:collect="always"
       xlink:href="#linearGradient20106"
       id="radialGradient20840"
       gradientUnits="userSpaceOnUse"
       gradientTransform="matrix(0.23180319,0,0,0.23180319,13.733056,63.396971)"
       cx="-9.8075666"
       cy="87.923416"
       fx="-9.8075666"
       fy="87.923416"
       r="7.924634" />
    <radialGradient
       inkscape:collect="always"
       xlink:href="#linearGradient19319"
       id="radialGradient20858"
       gradientUnits="userSpaceOnUse"
       gradientTransform="matrix(0.86923247,0,0,0.86923247,22.630163,18.705553)"
       cx="-9.8075666"
       cy="87.923416"
       fx="-9.8075666"
       fy="87.923416"
       r="7.924634" />
    <radialGradient
       inkscape:collect="always"
       xlink:href="#linearGradient20106"
       id="radialGradient20846"
       gradientUnits="userSpaceOnUse"
       gradientTransform="matrix(0.23180319,0,0,0.23180319,13.733056,72.015606)"
       cx="-9.8075666"
       cy="87.923416"
       fx="-9.8075666"
       fy="87.923416"
       r="7.924634" />
    <radialGradient
       inkscape:collect="always"
       xlink:href="#linearGradient19319"
       id="radialGradient20854"
       gradientUnits="userSpaceOnUse"
       gradientTransform="matrix(0.86923247,0,0,0.86923247,8.7077522,18.705553)"
       cx="-9.8075666"
       cy="87.923416"
       fx="-9.8075666"
       fy="87.923416"
       r="7.924634" />
    <radialGradient
       inkscape:collect="always"
       xlink:href="#linearGradient20106"
       id="radialGradient20850"
       gradientUnits="userSpaceOnUse"
       gradientTransform="matrix(0.23180319,0,0,0.23180319,5.2349613,72.015606)"
       cx="-9.8075666"
       cy="87.923416"
       fx="-9.8075666"
       fy="87.923416"
       r="7.924634" />
    <radialGradient
       inkscape:collect="always"
       xlink:href="#linearGradient8083-5"
       id="radialGradient8085-7"
       cx="-9.8075666"
       cy="87.923416"
       fx="-9.8075666"
       fy="87.923416"
       r="7.924634"
       gradientUnits="userSpaceOnUse"
       gradientTransform="matrix(1.7823601,0,0,1.7823601,31.968567,-142.09784)" />
    <linearGradient
       inkscape:collect="always"
       id="linearGradient8083-5">
      <stop
         style="stop-color:#f07864;stop-opacity:1;"
         offset="0"
         id="stop8079-0" />
      <stop
         style="stop-color:#f07864;stop-opacity:1;"
         offset="0.25290486"
         id="stop12820-3" />
      <stop
         style="stop-color:#956854;stop-opacity:1;"
         offset="0.38205129"
         id="stop16392" />
      <stop
         style="stop-color:#00503c;stop-opacity:1;"
         offset="0.64775944"
         id="stop8087-3" />
      <stop
         style="stop-color:#00503c;stop-opacity:1;"
         offset="1"
         id="stop8081-5" />
    </linearGradient>
    <radialGradient
       inkscape:collect="always"
       xlink:href="#linearGradient15652"
       id="radialGradient3209"
       gradientUnits="userSpaceOnUse"
       gradientTransform="matrix(1.7186378,0,0,1.7186378,17.469336,-150.49412)"
       cx="-9.8075666"
       cy="87.923416"
       fx="-9.8075666"
       fy="87.923416"
       r="7.924634" />
    <linearGradient
       inkscape:collect="always"
       id="linearGradient15652">
      <stop
         style="stop-color:#f07864;stop-opacity:1;"
         offset="0"
         id="stop15644" />
      <stop
         style="stop-color:#f07864;stop-opacity:1;"
         offset="0.20406169"
         id="stop15646" />
      <stop
         style="stop-color:#00503c;stop-opacity:1;"
         offset="0.65295631"
         id="stop15648" />
      <stop
         style="stop-color:#00503c;stop-opacity:0;"
         offset="1"
         id="stop15650" />
    </linearGradient>
    <radialGradient
       inkscape:collect="always"
       xlink:href="#linearGradient15652"
       id="radialGradient20842-0"
       gradientUnits="userSpaceOnUse"
       gradientTransform="matrix(1.7186378,0,0,1.7186378,45.107534,-150.32558)"
       cx="-9.8075666"
       cy="87.923416"
       fx="-9.8075666"
       fy="87.923416"
       r="7.924634" />
    <radialGradient
       inkscape:collect="always"
       xlink:href="#linearGradient15652"
       id="radialGradient3201"
       gradientUnits="userSpaceOnUse"
       gradientTransform="matrix(1.7186378,0,0,1.7186378,45.107534,-122.94018)"
       cx="-9.8075666"
       cy="87.923416"
       fx="-9.8075666"
       fy="87.923416"
       r="7.924634" />
    <radialGradient
       inkscape:collect="always"
       xlink:href="#linearGradient15652"
       id="radialGradient3205"
       gradientUnits="userSpaceOnUse"
       gradientTransform="matrix(1.7186378,0,0,1.7186378,17.637861,-122.94018)"
       cx="-9.8075666"
       cy="87.923416"
       fx="-9.8075666"
       fy="87.923416"
       r="7.924634" />
    <radialGradient
       inkscape:collect="always"
       xlink:href="#linearGradient11092"
       id="radialGradient3197"
       gradientUnits="userSpaceOnUse"
       gradientTransform="matrix(0.26283327,0,0,0.26283327,8.1310393,0.43358345)"
       cx="-9.8075666"
       cy="87.923416"
       fx="-9.8075666"
       fy="87.923416"
       r="7.924634" />
    <linearGradient
       inkscape:collect="always"
       id="linearGradient11092">
      <stop
         style="stop-color:#00b4a0;stop-opacity:1;"
         offset="0"
         id="stop11086" />
      <stop
         style="stop-color:#00b4a0;stop-opacity:1;"
         offset="0.16830927"
         id="stop11088" />
      <stop
         style="stop-color:#00503c;stop-opacity:0;"
         offset="1"
         id="stop11090" />
    </linearGradient>
    <radialGradient
       inkscape:collect="always"
       xlink:href="#linearGradient11084"
       id="radialGradient11068"
       gradientUnits="userSpaceOnUse"
       gradientTransform="matrix(0.26283327,0,0,0.26283327,25.707965,0.25483643)"
       cx="-9.8075666"
       cy="87.923416"
       fx="-9.8075666"
       fy="87.923416"
       r="7.924634" />
    <linearGradient
       inkscape:collect="always"
       id="linearGradient11084">
      <stop
         style="stop-color:#00b4a0;stop-opacity:1;"
         offset="0"
         id="stop11078" />
      <stop
         style="stop-color:#00b4a0;stop-opacity:1;"
         offset="0.16574517"
         id="stop11080" />
      <stop
         style="stop-color:#00503c;stop-opacity:0;"
         offset="1"
         id="stop11082" />
    </linearGradient>
    <radialGradient
       inkscape:collect="always"
       xlink:href="#linearGradient3185"
       id="radialGradient11072"
       gradientUnits="userSpaceOnUse"
       gradientTransform="matrix(0.26283327,0,0,0.26283327,8.1310393,-17.322089)"
       cx="-9.8075666"
       cy="87.923416"
       fx="-9.8075666"
       fy="87.923416"
       r="7.924634" />
    <linearGradient
       inkscape:collect="always"
       id="linearGradient3185">
      <stop
         style="stop-color:#00b4a0;stop-opacity:1;"
         offset="0"
         id="stop3179" />
      <stop
         style="stop-color:#00b4a0;stop-opacity:1;"
         offset="0.20677081"
         id="stop3181" />
      <stop
         style="stop-color:#00503c;stop-opacity:0;"
         offset="1"
         id="stop3183" />
    </linearGradient>
    <radialGradient
       inkscape:collect="always"
       xlink:href="#linearGradient11100"
       id="radialGradient11076"
       gradientUnits="userSpaceOnUse"
       gradientTransform="matrix(0.26283327,0,0,0.26283327,25.827129,-17.262506)"
       cx="-9.8075666"
       cy="87.923416"
       fx="-9.8075666"
       fy="87.923416"
       r="7.924634" />
    <linearGradient
       inkscape:collect="always"
       id="linearGradient11100">
      <stop
         style="stop-color:#00b4a0;stop-opacity:1;"
         offset="0"
         id="stop11094" />
      <stop
         style="stop-color:#00b4a0;stop-opacity:1;"
         offset="0.18882209"
         id="stop11096" />
      <stop
         style="stop-color:#00503c;stop-opacity:0;"
         offset="1"
         id="stop11098" />
    </linearGradient>
    <pattern
       patternUnits="userSpaceOnUse"
       width="54.877348"
       height="54.793087"
       patternTransform="translate(-13.005896,-13.005197)"
       id="pattern1071">
      <g
         id="g1069"
         transform="translate(13.005896,13.005197)">
        <rect
           style="fill:url(#radialGradient8085-7);fill-opacity:1;stroke-width:1;paint-order:markers stroke fill"
           id="rect6971-7"
           width="28.249105"
           height="28.249105"
           x="0.36340302"
           y="0.48878643" />
        <rect
           style="fill:url(#radialGradient3209);fill-opacity:1;stroke-width:0.999997;paint-order:markers stroke fill"
           id="rect3207"
           width="27.239153"
           height="27.239153"
           x="-13.005896"
           y="-13.005197" />
        <rect
           style="fill:url(#radialGradient20842-0);fill-opacity:1;stroke-width:0.999997;paint-order:markers stroke fill"
           id="rect20836-1"
           width="27.239153"
           height="27.239153"
           x="14.632299"
           y="-12.836669" />
        <rect
           style="fill:url(#radialGradient3201);fill-opacity:1;stroke-width:0.999997;paint-order:markers stroke fill"
           id="rect3199"
           width="27.239153"
           height="27.239153"
           x="14.632299"
           y="14.548738" />
        <rect
           style="fill:url(#radialGradient3205);fill-opacity:1;stroke-width:0.999997;paint-order:markers stroke fill"
           id="rect3203"
           width="27.239153"
           height="27.239153"
           x="-12.837377"
           y="14.548738" />
        <rect
           style="fill:url(#radialGradient3197);fill-opacity:1;stroke-width:0.999997;paint-order:markers stroke fill"
           id="rect3195"
           width="4.1657152"
           height="4.1657152"
           x="3.4704275"
           y="21.459917" />
        <rect
           style="fill:url(#radialGradient11068);fill-opacity:1;stroke-width:0.999997;paint-order:markers stroke fill"
           id="rect11066"
           width="4.1657152"
           height="4.1657152"
           x="21.047352"
           y="21.281164" />
        <rect
           style="fill:url(#radialGradient11072);fill-opacity:1;stroke-width:0.999997;paint-order:markers stroke fill"
           id="rect11070"
           width="4.1657152"
           height="4.1657152"
           x="3.4704275"
           y="3.7042575" />
        <rect
           style="fill:url(#radialGradient11076);fill-opacity:1;stroke-width:0.999997;paint-order:markers stroke fill"
           id="rect11074"
           width="4.1657152"
           height="4.1657152"
           x="21.166517"
           y="3.7638438" />
      </g>
    </pattern>
  </defs>
  <path
     id="rect1083"
     style="fill:url(#pattern1071)"
     d="M 1.7226562 0 C 1.6063174 1.4802959e-16 1.3914767 0.18078426 0.78710938 0.78515625 C 0.18275098 1.3895325 0.001953125 1.6043583 0.001953125 1.7207031 C 0.001953125 1.799883 0.079962522 1.8536284 0.1015625 1.7890625 C 0.11996748 1.7338597 0.27963941 1.578125 0.31835938 1.578125 C 0.33276936 1.578125 0.29779432 1.7239091 0.24023438 1.9023438 C 0.17408444 2.1074695 0.12601498 2.3498759 0.109375 2.5605469 C 0.068739041 3.0730996 0.17124884 5.0972068 0.26171875 5.5585938 C 0.28816872 5.6936305 0.32927252 5.9157425 0.3515625 6.0507812 C 0.53984931 7.1929642 0.85891459 8.2733125 1.2988281 9.2597656 C 1.3547501 9.3851571 1.4611195 9.6538407 1.5371094 9.8574219 C 1.6130823 10.061007 1.7072238 10.289484 1.7460938 10.365234 L 1.8183594 10.503906 L 1.6464844 10.689453 C 1.4214896 10.93563 1.1035105 11.453723 0.96289062 11.802734 C 0.90073169 11.957066 0.80475995 12.256548 0.75 12.46875 C 0.66485209 12.798801 0.65039062 12.923061 0.65039062 13.328125 L 0.65039062 13.802734 L 0.8359375 14.150391 L 1.0195312 14.498047 L 0.82617188 14.878906 L 0.6328125 15.259766 L 0.6328125 15.605469 C 0.6328125 16.540209 1.0138169 17.556234 1.6445312 18.304688 C 1.7879521 18.474987 1.7984218 18.500334 1.7636719 18.583984 C 1.7425419 18.634811 1.6313809 18.913759 1.515625 19.203125 C 1.3998781 19.492492 1.2246199 19.92683 1.125 20.167969 C 0.80441335 20.943834 0.46228867 22.136465 0.38671875 22.746094 C 0.36997077 22.881133 0.32465621 23.140953 0.28515625 23.324219 C 0.21273532 23.660301 0.1672112 24.224691 0.11328125 25.447266 C 0.075893287 26.295013 0.10517451 26.684841 0.24023438 27.103516 C 0.29768432 27.281958 0.33357936 27.427734 0.31835938 27.427734 C 0.30309539 27.427734 0.24093057 27.374171 0.18164062 27.306641 C 0.12237168 27.239112 0.056999355 27.183594 0.037109375 27.183594 C -0.041161547 27.183594 0.0087904971 27.36083 0.13085938 27.521484 C 0.32111818 27.771916 1.4554498 28.883919 1.5878906 28.949219 C 1.8219604 29.064588 1.8830843 28.990421 1.6953125 28.818359 C 1.5393267 28.675428 1.5530941 28.634064 1.7324219 28.708984 C 2.1969044 28.903069 2.667316 28.933394 4.0878906 28.865234 C 4.9351358 28.824599 5.3831504 28.781088 5.734375 28.705078 C 5.8707289 28.675588 6.1232712 28.631489 6.296875 28.605469 C 7.1646811 28.475385 8.1762734 28.168453 9.2089844 27.722656 C 9.4018952 27.639368 9.6855019 27.52568 9.8398438 27.46875 C 9.9941736 27.411796 10.205609 27.326247 10.310547 27.279297 L 10.501953 27.193359 L 10.736328 27.390625 C 11.479234 28.012231 12.629585 28.419521 13.5 28.369141 C 13.746529 28.354868 13.805529 28.334319 14.146484 28.15625 C 14.352841 28.048471 14.529963 27.973461 14.539062 27.988281 C 14.548167 28.003037 14.709732 28.091127 14.898438 28.185547 L 15.242188 28.357422 L 15.679688 28.355469 C 16.166958 28.352774 16.615805 28.261841 17.132812 28.0625 C 17.508199 27.917761 18.040381 27.596348 18.279297 27.369141 L 18.474609 27.183594 L 18.751953 27.304688 C 18.904525 27.371622 19.172079 27.480845 19.345703 27.546875 C 19.519313 27.612907 19.890217 27.760522 20.169922 27.875 C 21.002466 28.215725 22.10176 28.529908 22.765625 28.617188 C 22.910303 28.636207 23.138378 28.675788 23.273438 28.705078 C 23.640928 28.78485 24.067959 28.826024 24.904297 28.865234 C 26.349556 28.932989 26.709455 28.912482 27.214844 28.724609 C 27.318633 28.685959 27.413278 28.661325 27.423828 28.671875 C 27.452025 28.700078 27.249734 28.902419 27.214844 28.880859 C 27.198364 28.870729 27.183594 28.887299 27.183594 28.917969 C 27.183594 29.014519 27.282529 29.018071 27.4375 28.925781 C 27.625148 28.814029 28.872705 27.556595 28.953125 27.398438 C 29.018745 27.269356 29.005962 27.183594 28.919922 27.183594 C 28.889212 27.183594 28.872663 27.196451 28.882812 27.212891 C 28.903726 27.246749 28.703141 27.451168 28.675781 27.423828 C 28.665981 27.41402 28.695968 27.295585 28.742188 27.162109 C 28.900765 26.70367 28.914615 26.559865 28.890625 25.632812 C 28.86091 24.48366 28.807256 23.764741 28.722656 23.359375 C 28.684436 23.176107 28.638421 22.908332 28.619141 22.763672 C 28.530689 22.096741 28.215293 20.999471 27.875 20.167969 C 27.76051 19.888249 27.612905 19.517374 27.546875 19.34375 C 27.480829 19.170127 27.373561 18.902576 27.306641 18.75 L 27.183594 18.472656 L 27.371094 18.277344 C 27.598297 18.03842 27.919712 17.506235 28.064453 17.130859 C 28.263825 16.613854 28.354822 16.165013 28.357422 15.677734 L 28.359375 15.240234 L 28.1875 14.896484 C 28.093076 14.707787 28.003101 14.546209 27.988281 14.537109 C 27.973565 14.528003 28.050444 14.352844 28.158203 14.146484 C 28.336261 13.805518 28.354931 13.746523 28.369141 13.5 C 28.419533 12.62959 28.012233 11.477287 27.390625 10.734375 L 27.195312 10.5 L 27.28125 10.310547 C 27.328178 10.205601 27.411137 9.9969647 27.466797 9.8476562 C 27.522443 9.6983586 27.636453 9.4147372 27.720703 9.2167969 C 28.181841 8.1337036 28.475854 7.1688927 28.607422 6.296875 C 28.633625 6.123255 28.684986 5.8297498 28.722656 5.6464844 C 28.808108 5.2308762 28.862555 4.4930842 28.890625 3.3535156 C 28.910805 2.5351273 28.906271 2.4500029 28.837891 2.1660156 C 28.79738 1.9977864 28.740617 1.8034628 28.710938 1.7324219 C 28.635757 1.552445 28.677175 1.5371706 28.820312 1.6933594 C 28.95253 1.8376481 29.026934 1.8365892 28.990234 1.6894531 C 28.955444 1.5500281 28.845856 1.4188816 28.244141 0.8125 C 27.633535 0.19714902 27.396349 0 27.269531 0 C 27.151904 -1.8503699e-17 27.162509 0.053153727 27.306641 0.1796875 C 27.37417 0.23899644 27.429688 0.30118327 27.429688 0.31640625 C 27.429688 0.33167023 27.283904 0.29584519 27.105469 0.23828125 C 26.686802 0.10317869 26.295032 0.073940162 25.447266 0.11132812 C 24.224703 0.16523807 23.662243 0.2107412 23.326172 0.28320312 C 23.14289 0.32272259 22.883065 0.36791864 22.748047 0.38476562 C 22.138223 0.46034915 20.945387 0.80251198 20.169922 1.1230469 C 19.928776 1.2227215 19.51754 1.3880775 19.255859 1.4902344 C 18.994178 1.5923914 18.730432 1.7011439 18.669922 1.7324219 C 18.516471 1.8117849 18.502174 1.8079681 18.298828 1.6367188 C 17.557441 1.0122684 16.538185 0.63085938 15.607422 0.63085938 L 15.261719 0.63085938 L 14.880859 0.82421875 L 14.5 1.0195312 L 14.152344 0.83398438 L 13.802734 0.6484375 L 13.330078 0.65039062 C 12.925001 0.65085754 12.800751 0.66479139 12.470703 0.75 C 12.258513 0.80478885 11.959029 0.90071959 11.804688 0.96289062 C 11.455694 1.1035132 10.937579 1.4214915 10.691406 1.6464844 L 10.503906 1.8164062 L 10.367188 1.7460938 C 10.291447 1.7072262 10.06296 1.6131033 9.859375 1.5371094 C 9.6557932 1.4611118 9.3870966 1.3527939 9.2617188 1.296875 C 8.2752477 0.85697289 7.1929561 0.53792889 6.0507812 0.34960938 C 5.9157564 0.3273634 5.6955657 0.28820672 5.5605469 0.26171875 C 5.0991473 0.17127374 3.0750485 0.066806916 2.5625 0.10742188 C 2.3518292 0.12412676 2.1094227 0.17209132 1.9042969 0.23828125 C 1.7258451 0.29584419 1.5800781 0.33081724 1.5800781 0.31640625 C 1.5800781 0.27766459 1.7338526 0.11808036 1.7890625 0.099609375 C 1.8536034 0.078074397 1.8017762 4.3244254e-18 1.7226562 0 z M 2.7519531 0.96679688 C 3.2887534 0.97778031 4.3375852 1.0319854 4.6699219 1.0722656 C 4.9126546 1.1017172 5.2835168 1.1657849 5.4941406 1.2148438 C 5.7047424 1.2639026 6.0276717 1.3237707 6.2109375 1.3496094 C 6.5884141 1.4028191 7.0842925 1.516498 7.2851562 1.59375 C 7.3594752 1.6223491 7.4889688 1.663646 7.5742188 1.6855469 C 7.6946356 1.716472 9.7605263 2.7331836 9.8164062 2.7890625 C 9.8234292 2.7960956 9.7765574 2.9403177 9.7109375 3.109375 L 9.5917969 3.4160156 L 9.3476562 3.5488281 C 8.7370059 3.8807621 8.4694284 3.9554267 6.6132812 4.3164062 C 5.9507429 4.4452583 5.7953797 4.4875538 5.5761719 4.59375 C 5.455339 4.6522671 5.3518562 4.6992188 5.3476562 4.6992188 C 5.3434143 4.6992187 5.265878 4.5772452 5.1738281 4.4277344 C 4.5851557 3.4718798 3.421823 1.9994876 2.6992188 1.2929688 C 2.5215319 1.1192308 2.4071606 0.98199324 2.4316406 0.97265625 C 2.4516609 0.96502441 2.5730197 0.96313573 2.7519531 0.96679688 z M 26.554688 0.97265625 C 26.602778 0.98523254 26.53569 1.0680054 26.257812 1.34375 C 25.829898 1.7684006 24.991313 2.7570852 24.626953 3.265625 C 24.146772 3.9358339 23.968824 4.1959373 23.818359 4.4492188 C 23.736172 4.5875498 23.658864 4.7001693 23.646484 4.6992188 C 23.634201 4.6982851 23.537203 4.6512371 23.429688 4.5957031 C 23.216811 4.4857722 22.927067 4.4037425 22.625 4.3671875 C 22.518906 4.3543392 22.267001 4.3039033 22.064453 4.2558594 C 21.861889 4.2078356 21.483635 4.1304043 21.224609 4.0839844 C 20.965608 4.0375438 20.674062 3.9731722 20.576172 3.9414062 C 20.286081 3.8472261 19.757424 3.6166381 19.574219 3.5039062 C 19.418897 3.4083337 19.393042 3.3741265 19.294922 3.1171875 C 19.235693 2.9620238 19.1875 2.8215345 19.1875 2.8046875 C 19.1875 2.7878894 19.468143 2.6338153 19.810547 2.4628906 C 20.152973 2.291968 20.613161 2.0610779 20.833984 1.9492188 C 21.392609 1.6662503 22.229919 1.4122316 22.800781 1.3515625 C 22.926179 1.3382275 23.178042 1.2891806 23.361328 1.2441406 C 23.742266 1.1505451 24.27661 1.0655212 24.660156 1.0351562 C 25.087906 1.0013001 26.487278 0.95499747 26.554688 0.97265625 z M 1.7851562 1.0078125 L 2.0371094 1.2324219 C 2.2892811 1.457153 2.6845605 1.9300084 3.15625 2.5722656 C 3.4455817 2.9662021 4.3515625 4.296948 4.3515625 4.328125 C 4.3515625 4.3751664 4.2665803 4.3241449 3.59375 3.8652344 C 2.3050263 2.9862766 1.5818527 2.4250658 1.234375 2.0351562 L 1.0097656 1.7832031 L 1.0332031 1.5839844 C 1.0777031 1.2029327 1.1106315 1.1287737 1.2558594 1.0898438 C 1.3276173 1.0706218 1.4764126 1.044037 1.5859375 1.03125 L 1.7851562 1.0078125 z M 27.197266 1.0078125 L 27.410156 1.03125 C 27.527516 1.043347 27.681463 1.0682026 27.751953 1.0878906 C 27.867955 1.1200823 27.883096 1.1389834 27.916016 1.2890625 C 27.936026 1.3802974 27.962429 1.530998 27.974609 1.6230469 L 27.996094 1.7910156 L 27.757812 2.0488281 C 27.393829 2.4427017 26.688484 2.9916542 25.537109 3.7753906 C 24.812658 4.2685306 24.660156 4.363727 24.660156 4.328125 C 24.660156 4.2707077 25.698008 2.7593563 26.091797 2.2441406 C 26.502661 1.7065877 26.71727 1.4565739 26.958984 1.2304688 L 27.197266 1.0078125 z M 13.048828 1.5625 C 13.438066 1.5616069 13.461691 1.5648852 13.691406 1.6796875 C 13.822351 1.7451261 13.936613 1.8102138 13.945312 1.8242188 C 13.963986 1.8544131 13.879824 2.6088384 13.802734 3.1015625 C 13.732375 3.551179 13.57602 4.2463992 13.416016 4.8222656 C 13.346353 5.0730505 13.277882 5.2918236 13.263672 5.3066406 C 13.249524 5.3215511 13.154424 5.1232395 13.052734 4.8671875 C 12.634279 3.8139195 12.104525 2.7997553 11.697266 2.2714844 C 11.611737 2.1605447 11.541016 2.0562386 11.541016 2.0410156 C 11.541016 1.9877329 12.017412 1.7593543 12.330078 1.6621094 C 12.59733 1.5790525 12.70735 1.5632142 13.048828 1.5625 z M 15.974609 1.5644531 C 16.353292 1.5677211 16.435638 1.5804326 16.730469 1.6796875 C 17.044843 1.7855081 17.409165 1.9659664 17.453125 2.0371094 C 17.464309 2.0552147 17.411787 2.1446852 17.335938 2.2363281 C 17.12453 2.4916941 16.536776 3.4989487 16.332031 3.9570312 C 16.231366 4.1822454 16.063577 4.5845127 15.958984 4.8496094 C 15.854395 5.114708 15.759217 5.329936 15.748047 5.3300781 C 15.72182 5.3304394 15.431228 4.2459675 15.316406 3.71875 C 15.220543 3.2787463 15.095175 2.3931689 15.078125 2.0371094 L 15.066406 1.8144531 L 15.308594 1.6875 C 15.549096 1.5617417 15.551838 1.5608031 15.974609 1.5644531 z M 28.005859 2.3867188 C 28.024929 2.3858319 28.028282 2.7515618 28.013672 3.2871094 C 27.987066 4.2728601 27.906307 5.021461 27.765625 5.5976562 C 27.717964 5.7927876 27.663811 6.0783801 27.644531 6.2304688 C 27.56203 6.8832787 27.337401 7.6002191 27.027344 8.2070312 C 26.904126 8.4481685 26.674351 8.909297 26.515625 9.2324219 C 26.356893 9.5555485 26.20861 9.8183362 26.1875 9.8164062 C 26.136868 9.8115815 25.673526 9.6257512 25.603516 9.5820312 C 25.529483 9.5357876 25.215477 8.8858892 25.103516 8.5488281 C 25.053706 8.3988501 24.963907 8.0200336 24.904297 7.7070312 C 24.844679 7.3940225 24.771871 7.0481052 24.744141 6.9394531 C 24.716414 6.8308011 24.662037 6.5560775 24.623047 6.328125 C 24.577053 6.0591071 24.510031 5.8160419 24.431641 5.6347656 C 24.365228 5.4811568 24.318472 5.3444122 24.326172 5.3320312 C 24.333903 5.3195078 24.470571 5.2291193 24.630859 5.1308594 C 25.037149 4.881814 26.060159 4.147121 26.392578 3.8652344 C 27.300602 3.0952108 27.720658 2.7170445 27.839844 2.5625 C 27.913945 2.4664119 27.988199 2.3874276 28.005859 2.3867188 z M 0.97460938 2.4277344 C 0.98478036 2.4010331 1.1129151 2.5076831 1.2949219 2.6953125 C 1.9904452 3.4123415 3.4500025 4.5638504 4.4296875 5.1679688 C 4.5792074 5.2601797 4.7011719 5.3408331 4.7011719 5.3457031 C 4.7011719 5.3505603 4.6559993 5.4480474 4.5996094 5.5644531 C 4.4762515 5.8191128 4.4325043 5.9721866 4.3652344 6.3945312 C 4.3371224 6.5711721 4.2841137 6.8437054 4.2460938 6.9980469 C 4.2080768 7.1523766 4.1375637 7.4890617 4.0898438 7.7480469 C 3.9770619 8.3598883 3.8575983 8.7273492 3.6171875 9.203125 L 3.421875 9.5898438 L 3.1230469 9.7050781 C 2.95909 9.7684846 2.8171906 9.8202841 2.8066406 9.8203125 C 2.7770457 9.8203958 1.6855469 7.6507618 1.6855469 7.5917969 C 1.6855469 7.5631068 1.6526812 7.4483294 1.6132812 7.3378906 C 1.5125324 7.0552754 1.4066124 6.5976349 1.3515625 6.2070312 C 1.3257035 6.0237637 1.2658768 5.7027997 1.2167969 5.4921875 C 1.1677159 5.2815773 1.1036087 4.9106975 1.0742188 4.6679688 C 1.0198888 4.2198888 0.94354941 2.5090663 0.97460938 2.4277344 z M 11.191406 2.8417969 C 11.214385 2.8412692 11.925427 4.0603684 12.060547 4.3320312 C 12.263489 4.7400602 12.876874 6.2745889 12.964844 6.59375 C 12.973912 6.6267799 12.8993 6.7055956 12.763672 6.8046875 C 12.287118 7.1529044 11.314248 8.1920536 10.664062 9.0488281 C 10.577272 9.1632127 10.497898 9.2571143 10.486328 9.2578125 C 10.4748 9.2586223 10.392577 9.1060646 10.304688 8.9179688 C 9.940175 8.1378207 9.7773438 7.3054644 9.7773438 6.2421875 C 9.7776937 5.6573293 9.7911238 5.4830916 9.8710938 5.0332031 C 9.9225267 4.7438349 10.007837 4.3509724 10.060547 4.1601562 L 10.15625 3.8125 L 10.386719 3.6601562 C 10.719351 3.4409583 10.910708 3.263408 11.050781 3.0390625 C 11.118266 2.9309173 11.181706 2.8420161 11.191406 2.8417969 z M 17.8125 2.8417969 C 17.826141 2.8421825 17.885469 2.9232855 17.943359 3.0214844 C 18.068925 3.2345099 18.341615 3.4906706 18.628906 3.6679688 C 18.830244 3.7922519 18.838933 3.806456 18.908203 4.0390625 C 19.120798 4.7528926 19.222656 5.4692985 19.222656 6.2597656 C 19.222656 7.3822297 19.019887 8.3301169 18.621094 9.0664062 C 18.563405 9.1729679 18.512812 9.2597656 18.507812 9.2597656 C 18.502861 9.2597656 18.444666 9.1853929 18.378906 9.09375 C 18.313148 9.0021172 18.188602 8.8458398 18.101562 8.7480469 C 17.904928 8.5271054 17.845482 8.4582612 17.445312 7.9785156 C 17.070468 7.5291367 16.676084 7.1372949 16.330078 6.8730469 C 16.19501 6.7699193 16.069584 6.6743662 16.052734 6.6601562 C 16.013915 6.6271286 16.39093 5.5940312 16.71875 4.8320312 C 16.857785 4.5088698 17.11104 4.0031408 17.283203 3.7089844 C 17.455368 3.4148301 17.638976 3.0994554 17.691406 3.0078125 C 17.743836 2.9161903 17.7987 2.8413219 17.8125 2.8417969 z M 14.486328 3.7949219 C 14.499278 3.7694749 14.555565 3.9182387 14.609375 4.1269531 C 14.663182 4.3356675 14.765631 4.704175 14.837891 4.9453125 C 15.029051 5.5832648 15.133545 5.9953573 15.109375 6.0195312 C 15.097724 6.0310402 15.044284 6.0247364 14.990234 6.0058594 C 14.92255 5.9821704 14.841155 5.986234 14.732422 6.015625 C 14.645638 6.039109 14.552387 6.0658199 14.523438 6.0761719 C 14.494494 6.0865229 14.429346 6.073525 14.378906 6.046875 C 14.275966 5.9925391 14.097749 5.979089 13.955078 6.015625 L 13.859375 6.0410156 L 13.947266 5.7128906 C 13.995909 5.5323449 14.096142 5.1785192 14.169922 4.9277344 C 14.243684 4.6769516 14.340966 4.3298742 14.384766 4.15625 C 14.428548 3.9826279 14.473128 3.8203548 14.486328 3.7949219 z M 9.3164062 4.3496094 C 9.3297662 4.3496094 9.3301294 4.3843384 9.3183594 4.4277344 C 9.3064794 4.4711404 9.2615 4.7200386 9.21875 4.9804688 C 9.1243501 5.5555781 9.106267 6.793812 9.1855469 7.3066406 L 9.1875 7.3066406 C 9.21376 7.4765159 9.22785 7.6217194 9.21875 7.6308594 C 9.209677 7.6399326 9.139493 7.5725177 9.0644531 7.4804688 C 8.7985284 7.154338 7.6984005 6.0784722 7.4804688 5.9316406 C 7.3588429 5.8496796 7.157281 5.7223656 7.0332031 5.6503906 L 6.8066406 5.5195312 L 7.1660156 5.3554688 C 7.3635054 5.2650071 7.7771527 5.0897338 8.0839844 4.9648438 C 8.3907931 4.8399496 8.7879971 4.6496722 8.9667969 4.5429688 C 9.1455957 4.4362648 9.3032063 4.3496094 9.3164062 4.3496094 z M 19.691406 4.359375 C 19.699943 4.3508298 19.846978 4.4284233 20.017578 4.53125 C 20.319571 4.7132652 20.578031 4.8340742 21.117188 5.0449219 C 21.261864 5.1015029 21.562682 5.2301383 21.787109 5.3320312 L 22.195312 5.5175781 L 21.875 5.7109375 C 21.698784 5.8167033 21.491232 5.9509637 21.414062 6.0097656 C 21.217903 6.1592197 20.658514 6.708528 20.195312 7.2070312 C 19.980188 7.4385174 19.794773 7.6334119 19.783203 7.6386719 C 19.771753 7.6438092 19.783181 7.5168787 19.806641 7.3574219 C 19.921707 6.577869 19.898385 5.6113559 19.746094 4.765625 C 19.707614 4.5512009 19.682906 4.367895 19.691406 4.359375 z M 6.0683594 6.0664062 L 6.3417969 6.2050781 C 6.7639515 6.4173281 7.2448795 6.7539703 7.5957031 7.0839844 C 8.0372047 7.4992938 8.9065597 8.2549267 9.2246094 8.5 C 9.3703772 8.6123324 9.5038244 8.7373009 9.5214844 8.7792969 C 9.6816942 9.1616988 9.8463229 9.511421 9.9804688 9.7539062 C 10.068679 9.9133668 10.132747 10.064489 10.123047 10.089844 C 10.102405 10.143734 10.026376 10.151196 9.9785156 10.103516 C 9.9286467 10.053828 8.9822465 9.5885957 8.8378906 9.5429688 C 8.7485757 9.5147331 8.6714851 9.4460543 8.5664062 9.3027344 C 8.3862764 9.0570216 7.4950031 8.0283304 7.0859375 7.59375 C 6.7560328 7.2432481 6.419389 6.762199 6.2070312 6.3398438 L 6.0683594 6.0664062 z M 22.90625 6.1035156 C 22.90625 6.1557105 22.615508 6.678202 22.4375 6.9453125 C 22.341079 7.0899965 22.170883 7.3022128 22.060547 7.4179688 C 21.950256 7.5337172 21.745313 7.7652625 21.603516 7.9316406 C 21.461706 8.0980268 21.202901 8.3946074 21.029297 8.5917969 C 20.855664 8.7889863 20.621113 9.0711268 20.507812 9.21875 C 20.311726 9.4742745 20.286076 9.4936888 19.998047 9.6132812 C 19.663803 9.7521057 19.42741 9.8682567 19.154297 10.029297 C 18.817467 10.227895 18.80803 10.154461 19.095703 9.6054688 C 19.220825 9.3666697 19.364436 9.0655724 19.416016 8.9355469 C 19.493903 8.7392242 19.54079 8.6779904 19.6875 8.5703125 C 19.784656 8.4989936 20.001432 8.3197264 20.169922 8.1738281 C 20.338431 8.0279305 20.63965 7.7678861 20.839844 7.5957031 C 21.040011 7.4235181 21.322117 7.1692726 21.466797 7.03125 C 21.611474 6.8932376 21.857377 6.6958213 22.011719 6.5917969 C 22.337642 6.3721443 22.90625 6.0617437 22.90625 6.1035156 z M 5.5214844 6.8046875 L 5.6523438 7.03125 C 5.7243137 7.1553183 5.8498807 7.3541844 5.9316406 7.4746094 C 6.0786165 7.6910511 6.8926863 8.5320006 7.4023438 8.9941406 L 7.6660156 9.2324219 L 7.4902344 9.2109375 C 6.5882103 9.0945308 5.712633 9.0964986 4.9648438 9.21875 C 4.733352 9.256605 4.5003256 9.298902 4.4472656 9.3125 C 4.3942057 9.3259657 4.3515625 9.325695 4.3515625 9.3125 C 4.3515625 9.299276 4.438238 9.1436237 4.5449219 8.9648438 C 4.6516108 8.7860516 4.841887 8.3888512 4.9667969 8.0820312 C 5.0916978 7.775207 5.266952 7.3615365 5.3574219 7.1640625 L 5.5214844 6.8046875 z M 23.470703 6.8554688 C 23.539425 6.9055248 23.726372 7.3064451 23.998047 7.9902344 C 24.191551 8.4772246 24.316759 8.7370586 24.519531 9.0683594 C 24.596111 9.193434 24.660156 9.30316 24.660156 9.3125 C 24.660156 9.334746 24.646826 9.332518 24.115234 9.2363281 C 23.346386 9.0972288 22.395087 9.0879353 21.501953 9.2109375 L 21.345703 9.234375 L 21.466797 9.1035156 C 21.534313 9.0321984 21.698693 8.8849964 21.830078 8.7753906 C 22.263427 8.4138977 23.045233 7.5440083 23.238281 7.2109375 C 23.334729 7.0445411 23.429929 6.8864488 23.449219 6.8574219 C 23.454124 6.8500483 23.460886 6.8483179 23.470703 6.8554688 z M 14.505859 7.0449219 C 14.713688 7.0488389 15.122509 7.0982378 15.136719 7.1210938 C 15.145691 7.1356286 15.099553 7.3653675 15.033203 7.6328125 C 14.873868 8.2749622 14.609441 9.6098797 14.556641 10.039062 C 14.533521 10.227145 14.509206 10.382812 14.503906 10.382812 C 14.498626 10.382812 14.477588 10.243013 14.455078 10.074219 C 14.399019 9.6526784 14.123861 8.261855 13.976562 7.6523438 C 13.909826 7.3761767 13.863547 7.1382719 13.873047 7.1230469 C 13.888719 7.0976969 14.341896 7.0418619 14.505859 7.0449219 z M 15.794922 7.4003906 C 15.852591 7.4003906 16.234954 7.7148623 16.505859 7.9863281 C 16.74186 8.2228077 16.957465 8.4935893 17.621094 9.3789062 C 17.778198 9.5884609 17.996094 9.9481601 17.996094 10 C 17.996094 10.125477 17.141957 11.022134 16.521484 11.548828 C 16.318923 11.720771 15.912519 12.108155 15.617188 12.410156 L 15.080078 12.958984 L 15.097656 12.732422 C 15.108026 12.60703 15.133064 12.369041 15.152344 12.205078 C 15.171614 12.041103 15.203376 11.473867 15.222656 10.943359 C 15.241926 10.412853 15.274522 9.8436704 15.294922 9.6796875 C 15.374102 9.0439968 15.734412 7.4003906 15.794922 7.4003906 z M 13.222656 7.421875 C 13.301717 7.508819 13.649874 9.1678844 13.714844 9.7675781 C 13.733674 9.9411982 13.758371 10.367601 13.769531 10.714844 C 13.793319 11.448254 13.843364 12.206031 13.896484 12.621094 C 13.916834 12.78148 13.928022 12.917681 13.919922 12.925781 C 13.911905 12.933811 13.676932 12.711408 13.398438 12.429688 C 13.119967 12.147965 12.709793 11.75591 12.488281 11.560547 C 12.266773 11.365188 11.977003 11.103892 11.84375 10.978516 C 11.560678 10.712158 11.015625 10.069423 11.015625 10.001953 C 11.015292 9.9307175 11.275651 9.5024865 11.447266 9.2910156 C 11.531545 9.1871781 11.740739 8.9124727 11.912109 8.6816406 C 12.369571 8.0654389 13.137246 7.3279181 13.222656 7.421875 z M 22.798828 9.7675781 C 23.519377 9.7729884 24.250813 9.879998 24.925781 10.083984 C 25.209708 10.169783 25.210237 10.171057 25.345703 10.390625 C 25.527586 10.685523 25.722931 10.893035 25.96875 11.052734 L 26.171875 11.185547 L 26.039062 11.269531 C 25.01809 11.920317 24.330591 12.253237 22.980469 12.751953 C 22.645392 12.875729 22.367834 12.976562 22.365234 12.976562 C 22.362514 12.976563 22.275164 12.862525 22.169922 12.722656 C 22.064679 12.582796 21.852256 12.337227 21.697266 12.175781 C 21.435279 11.902881 20.483976 11.074516 19.984375 10.685547 C 19.864955 10.592564 19.763112 10.504644 19.757812 10.490234 C 19.743844 10.45187 20.387829 10.152248 20.703125 10.050781 C 20.852192 10.002798 21.223097 9.9215716 21.527344 9.8691406 C 21.937563 9.7984544 22.366499 9.764332 22.798828 9.7675781 z M 6.2441406 9.7753906 C 6.822353 9.7750656 7.0103006 9.7884495 7.4550781 9.8652344 C 7.7444328 9.9151863 8.115335 9.9974342 8.2792969 10.048828 C 8.5833036 10.144139 9.2623656 10.446295 9.2597656 10.484375 C 9.2589596 10.495924 9.1651781 10.575279 9.0507812 10.662109 C 8.1970861 11.309944 7.1583623 12.281132 6.8066406 12.759766 C 6.7198107 12.877904 6.6405594 12.975084 6.6308594 12.974609 C 6.5123145 12.967664 4.742691 12.261873 4.3339844 12.058594 C 4.0623166 11.923476 2.84375 11.212413 2.84375 11.189453 C 2.843994 11.179812 2.9328507 11.116358 3.0410156 11.048828 C 3.2653484 10.908755 3.4429006 10.717388 3.6621094 10.384766 L 3.8144531 10.154297 L 4.1621094 10.058594 C 4.3529332 10.005882 4.7457775 9.9205726 5.0351562 9.8691406 C 5.4850288 9.7892507 5.6592882 9.775628 6.2441406 9.7753906 z M 19 10.982422 L 19.251953 11.132812 C 19.391035 11.215276 19.628503 11.379404 19.777344 11.496094 C 19.926195 11.61278 20.20553 11.82547 20.398438 11.96875 C 20.931689 12.364807 21.667771 13.146079 21.582031 13.224609 C 21.544326 13.259155 20.757483 13.444835 20.117188 13.570312 C 19.425267 13.705908 19.078086 13.741106 17.943359 13.785156 C 17.422484 13.805376 16.805713 13.845017 16.574219 13.873047 C 16.342727 13.901057 16.129842 13.923354 16.101562 13.923828 C 16.073319 13.924234 16.334709 13.637217 16.681641 13.285156 C 17.028575 12.933092 17.45161 12.483588 17.621094 12.287109 C 17.963827 11.889791 18.468051 11.396515 18.789062 11.146484 L 19 10.982422 z M 9.9980469 11.013672 C 10.12257 11.013672 11.022372 11.848807 11.470703 12.380859 C 11.576374 12.50625 11.954033 12.905867 12.310547 13.267578 C 12.916424 13.882281 12.953476 13.923828 12.853516 13.923828 C 12.794711 13.923828 12.738769 13.918456 12.730469 13.910156 C 12.702676 13.882369 11.386694 13.788328 10.734375 13.767578 C 10.377507 13.756228 9.9431561 13.731771 9.7695312 13.712891 C 9.1682669 13.647467 7.510638 13.299643 7.4238281 13.220703 C 7.3298492 13.135271 8.0673914 12.367616 8.6835938 11.910156 C 8.9144235 11.738791 9.1891269 11.529582 9.2929688 11.445312 C 9.4956245 11.280831 9.9317169 11.013672 9.9980469 11.013672 z M 2.0566406 11.539062 C 2.0791906 11.539063 2.1184181 11.562667 2.1425781 11.591797 C 2.271674 11.747342 3.4491276 12.442837 4 12.6875 C 4.2218428 12.786034 4.6130809 12.949071 4.8691406 13.050781 C 5.1251684 13.152504 5.3236137 13.247709 5.3085938 13.261719 C 5.2727868 13.295163 4.6228388 13.474377 4.0527344 13.609375 C 3.5546979 13.727318 2.9761017 13.829262 2.4570312 13.888672 C 2.2737474 13.909622 2.0582055 13.935413 1.9785156 13.945312 C 1.8374738 13.963153 1.8318374 13.959622 1.7421875 13.806641 C 1.5182617 13.424503 1.4932131 12.902178 1.6699219 12.318359 C 1.7708938 11.984788 1.9916707 11.539062 2.0566406 11.539062 z M 26.974609 11.556641 C 27.038707 11.596244 27.24169 12.033532 27.341797 12.345703 C 27.420227 12.590644 27.438406 12.712316 27.441406 13.029297 C 27.444786 13.380834 27.435846 13.434122 27.347656 13.625 C 27.294401 13.740214 27.226332 13.862184 27.195312 13.896484 C 27.164253 13.930764 27.120719 13.957078 27.099609 13.955078 C 26.424099 13.888385 25.581028 13.757681 25.074219 13.640625 C 24.778957 13.572432 23.808287 13.315914 23.677734 13.271484 C 23.648804 13.261633 23.908619 13.139829 24.255859 13 C 24.603101 12.860163 25.040643 12.673024 25.228516 12.583984 C 25.619842 12.398492 26.570113 11.832488 26.789062 11.654297 C 26.870231 11.588227 26.953969 11.543851 26.974609 11.556641 z M 14.501953 11.865234 C 14.508733 11.858457 14.534324 11.958742 14.558594 12.089844 C 14.598954 12.30757 14.832809 13.035525 14.964844 13.351562 C 15.006314 13.450712 15.026701 13.469701 15.050781 13.431641 C 15.068051 13.404219 15.083984 13.341629 15.083984 13.292969 C 15.084455 13.21522 15.140334 13.174145 15.548828 12.960938 C 15.804436 12.827527 16.117566 12.653006 16.244141 12.572266 C 16.479059 12.422436 16.626953 12.356554 16.626953 12.402344 C 16.626953 12.434536 16.457177 12.732284 16.398438 12.802734 C 16.374299 12.831672 16.271003 13.012171 16.169922 13.205078 C 15.804489 13.902472 15.790328 13.923828 15.679688 13.923828 C 15.62436 13.923828 15.570697 13.938438 15.560547 13.955078 C 15.543995 13.981911 15.62649 14.024224 15.925781 14.142578 C 16.155733 14.233509 16.636288 14.381537 16.873047 14.435547 C 17.161835 14.50143 17.155084 14.512837 16.767578 14.591797 C 16.48982 14.64838 15.555753 14.987747 15.564453 15.029297 C 15.568533 15.048577 15.623067 15.072331 15.685547 15.082031 C 15.790221 15.098182 15.817818 15.135251 16.035156 15.539062 C 16.16494 15.780199 16.354443 16.115937 16.455078 16.285156 C 16.555668 16.454376 16.627414 16.601301 16.615234 16.613281 C 16.603214 16.625297 16.454376 16.553739 16.285156 16.453125 C 16.115937 16.352498 15.780211 16.163006 15.539062 16.033203 C 15.135276 15.815848 15.100224 15.788268 15.083984 15.683594 C 15.074324 15.6211 15.05053 15.5666 15.03125 15.5625 C 14.989702 15.553754 14.648367 16.487866 14.591797 16.765625 C 14.512835 17.153143 14.50338 17.159894 14.4375 16.871094 C 14.383502 16.634344 14.235461 16.153778 14.144531 15.923828 C 14.026172 15.624521 13.983821 15.541954 13.957031 15.558594 C 13.940451 15.568885 13.925781 15.622424 13.925781 15.677734 C 13.925781 15.788347 13.904431 15.802497 13.207031 16.167969 C 13.014118 16.269058 12.833647 16.372354 12.804688 16.396484 C 12.734257 16.455217 12.436467 16.625 12.404297 16.625 C 12.358506 16.625 12.424362 16.477132 12.574219 16.242188 C 12.654942 16.115601 12.829497 15.802483 12.962891 15.546875 C 13.176087 15.138385 13.217162 15.082508 13.294922 15.082031 C 13.343599 15.081741 13.406154 15.066278 13.433594 15.048828 C 13.471567 15.024818 13.45134 15.005391 13.349609 14.962891 C 13.080506 14.850459 12.290034 14.593595 12.068359 14.546875 L 11.839844 14.498047 L 12.050781 14.455078 C 12.261241 14.411749 13.193171 14.111907 13.373047 14.029297 C 13.492076 13.974594 13.467672 13.924066 13.320312 13.923828 C 13.211893 13.923595 13.199598 13.907095 12.935547 13.40625 C 12.785579 13.121838 12.600137 12.78812 12.523438 12.664062 C 12.382105 12.435536 12.360229 12.380859 12.412109 12.380859 C 12.427902 12.380859 12.541958 12.444784 12.666016 12.521484 C 12.790087 12.598205 13.123777 12.783636 13.408203 12.933594 C 13.908902 13.197668 13.925781 13.209951 13.925781 13.318359 C 13.926127 13.4797 13.978299 13.486849 14.042969 13.335938 C 14.162819 13.05619 14.384027 12.379643 14.435547 12.134766 C 14.465337 11.993187 14.495053 11.872134 14.501953 11.865234 z M 6.0429688 13.857422 L 6.0175781 13.953125 C 5.9808182 14.096606 5.9949613 14.274819 6.0507812 14.386719 C 6.0935412 14.473176 6.0936112 14.50492 6.0507812 14.607422 C 5.9918513 14.748445 5.979655 14.889125 6.015625 15.021484 C 6.037505 15.102044 6.0309224 15.117234 5.9765625 15.115234 C 5.9052776 15.112282 5.4095594 14.976723 4.859375 14.810547 C 4.6664642 14.752277 4.33761 14.661212 4.1289062 14.607422 C 3.9202095 14.553653 3.771445 14.497365 3.796875 14.484375 C 3.822319 14.471402 3.9845783 14.426612 4.1582031 14.382812 C 4.331811 14.339024 4.6789148 14.241729 4.9296875 14.167969 C 5.1804842 14.094219 5.5343189 13.993972 5.7148438 13.945312 L 6.0429688 13.857422 z M 22.974609 13.859375 L 23.298828 13.947266 C 23.477772 13.995477 23.829305 14.094229 24.080078 14.167969 C 24.330875 14.241738 24.677939 14.339013 24.851562 14.382812 C 25.149577 14.45799 25.316421 14.515831 25.238281 14.519531 C 25.180916 14.522226 24.227097 14.780926 23.630859 14.955078 C 23.325828 15.044182 23.055647 15.117188 23.029297 15.117188 C 22.992337 15.117188 22.98518 15.075244 23 14.931641 C 23.01405 14.79555 23.003927 14.713999 22.960938 14.630859 C 22.905408 14.524158 22.905428 14.506658 22.960938 14.361328 C 23.003647 14.250001 23.012734 14.15783 22.996094 14.033203 L 22.974609 13.859375 z M 7.125 13.871094 C 7.140203 13.861697 7.3781252 13.907869 7.6542969 13.974609 C 8.2638143 14.121887 9.6546364 14.397085 10.076172 14.453125 C 10.244973 14.475575 10.384766 14.496653 10.384766 14.501953 C 10.384766 14.507233 10.229112 14.531568 10.041016 14.554688 C 9.6113952 14.607526 8.2763099 14.87157 7.6328125 15.03125 C 7.0661241 15.17187 7.1229187 15.164545 7.1054688 15.109375 C 7.0904888 15.06139 7.0449219 14.616334 7.0449219 14.503906 C 7.0433619 14.33193 7.10001 13.886724 7.125 13.871094 z M 21.847656 13.880859 C 21.917085 13.896489 21.917972 13.963643 21.919922 14.097656 C 21.921182 14.186297 21.936808 14.307841 21.955078 14.369141 C 21.975968 14.438924 21.975968 14.536516 21.955078 14.628906 C 21.936848 14.710069 21.919922 14.832624 21.919922 14.902344 C 21.918702 14.972066 21.909491 15.058047 21.900391 15.091797 C 21.879808 15.168094 21.88403 15.167864 21.416016 15.044922 C 20.8936 14.907707 19.38791 14.605721 18.978516 14.556641 C 18.795958 14.534741 18.641466 14.512559 18.634766 14.505859 C 18.628151 14.499239 18.761772 14.474272 18.931641 14.451172 C 19.392019 14.388593 20.783597 14.113353 21.357422 13.970703 C 21.639489 13.900583 21.778227 13.86523 21.847656 13.880859 z M 27.185547 15.042969 L 27.304688 15.289062 C 27.379317 15.444859 27.430493 15.61662 27.445312 15.755859 C 27.489773 16.177429 27.346011 16.800445 27.103516 17.236328 C 27.039778 17.350881 26.973148 17.448425 26.955078 17.453125 C 26.937048 17.457813 26.84467 17.399196 26.75 17.322266 C 26.499654 17.118841 25.524139 16.546181 25.117188 16.363281 C 24.645827 16.151441 23.730148 15.783203 23.673828 15.783203 C 23.452624 15.783203 24.239894 15.549418 25.132812 15.349609 C 25.633672 15.237523 26.333261 15.130056 26.966797 15.066406 L 27.185547 15.042969 z M 1.8144531 15.064453 L 2.0390625 15.076172 C 2.3951241 15.093289 3.2787404 15.218633 3.71875 15.314453 C 4.2459555 15.429278 5.3320312 15.719874 5.3320312 15.746094 C 5.3318623 15.757355 5.1147311 15.852458 4.8496094 15.957031 C 4.5845146 16.061607 4.1841941 16.229423 3.9589844 16.330078 C 3.5029928 16.533899 2.4935911 17.12233 2.2402344 17.332031 C 2.1499515 17.406741 2.0674006 17.466797 2.0566406 17.466797 C 2.0265507 17.466797 1.8619124 17.197314 1.7890625 17.027344 C 1.6213857 16.636141 1.5668531 16.371563 1.5644531 15.955078 C 1.5625451 15.553758 1.5649082 15.544656 1.6894531 15.306641 L 1.8144531 15.064453 z M 12.960938 15.078125 L 12.412109 15.615234 C 12.110115 15.910566 11.722721 16.316963 11.550781 16.519531 C 11.157939 16.982339 10.654924 17.48913 10.306641 17.773438 C 10.158943 17.894003 10.017827 17.993387 9.9921875 17.992188 C 9.9321216 17.989539 9.535685 17.744375 9.3320312 17.583984 C 9.2452153 17.515631 8.9695227 17.304959 8.71875 17.117188 C 8.4679533 16.929421 8.1385631 16.653884 7.9882812 16.503906 C 7.7168045 16.232999 7.4023438 15.850639 7.4023438 15.792969 C 7.4023438 15.732473 9.0459463 15.372149 9.6816406 15.292969 C 9.8455975 15.272529 10.414813 15.239983 10.945312 15.220703 C 11.475814 15.201433 12.043048 15.169671 12.207031 15.150391 C 12.371012 15.131131 12.608998 15.108006 12.734375 15.097656 L 12.960938 15.078125 z M 16.136719 15.082031 C 16.184288 15.082201 16.408538 15.106536 16.634766 15.134766 C 16.861019 15.162976 17.501595 15.202556 18.056641 15.222656 C 19.146004 15.262196 19.342108 15.281123 20.064453 15.417969 C 20.530003 15.506165 21.576296 15.745011 21.603516 15.769531 C 21.611146 15.776412 21.573641 15.849921 21.519531 15.931641 C 21.34507 16.195292 20.759585 16.764685 20.363281 17.056641 C 20.151065 17.212971 19.862749 17.431983 19.722656 17.542969 C 19.582529 17.65396 19.368264 17.800821 19.246094 17.869141 C 19.123942 17.937462 19.007894 17.994141 18.990234 17.994141 C 18.90593 17.994141 18.176076 17.322583 17.785156 16.886719 C 17.544012 16.617857 17.055449 16.10208 16.699219 15.740234 C 16.161255 15.193657 16.064869 15.081795 16.136719 15.082031 z M 22.414062 16.041016 C 22.894622 16.190388 24.136834 16.686382 24.642578 16.929688 C 24.940872 17.073183 26.167969 17.788099 26.167969 17.818359 C 26.167969 17.828265 26.096906 17.873682 26.009766 17.919922 C 25.794231 18.034264 25.50487 18.33189 25.34375 18.607422 C 25.216714 18.824628 25.201078 18.838665 25.013672 18.890625 C 24.905417 18.920625 24.792602 18.953391 24.763672 18.962891 C 24.650867 19.000279 24.202327 19.088264 23.800781 19.152344 C 23.281735 19.235194 22.220909 19.239949 21.712891 19.162109 C 20.958363 19.046486 20.289916 18.841813 19.890625 18.601562 L 19.734375 18.507812 L 19.833984 18.433594 C 19.950159 18.34922 20.058267 18.261697 20.878906 17.568359 C 21.547232 17.003699 21.797699 16.75361 22.134766 16.316406 C 22.285471 16.120965 22.377853 16.029656 22.414062 16.041016 z M 13.935547 16.046875 L 13.912109 16.222656 C 13.856633 16.651727 13.789011 17.610582 13.769531 18.238281 C 13.737161 19.279192 13.652414 19.877193 13.361328 21.097656 C 13.301494 21.348439 13.240572 21.566801 13.226562 21.582031 C 13.189095 21.62294 12.824986 21.339442 12.507812 21.023438 C 12.354764 20.87097 12.07118 20.535736 11.876953 20.277344 C 11.682737 20.018949 11.473859 19.742369 11.412109 19.662109 C 11.350358 19.58185 11.228658 19.398409 11.142578 19.255859 L 10.986328 18.996094 L 11.150391 18.787109 C 11.399929 18.466721 11.892022 17.961643 12.289062 17.619141 C 12.485507 17.449667 12.936542 17.027304 13.291016 16.679688 L 13.935547 16.046875 z M 6.6621094 16.050781 C 6.6763234 16.067487 6.7738212 16.193086 6.8769531 16.328125 C 7.1411949 16.674146 7.5310712 17.068514 7.9804688 17.443359 C 8.4602003 17.843531 8.5290632 17.903009 8.75 18.099609 C 8.8477779 18.186631 9.0040632 18.311193 9.0957031 18.376953 C 9.187344 18.442696 9.2617188 18.501713 9.2617188 18.507812 C 9.2617187 18.513861 9.1794089 18.562434 9.078125 18.615234 C 8.5403905 18.895543 8.0809595 19.036039 7.3320312 19.152344 C 6.7470588 19.243094 5.7356613 19.242701 5.1542969 19.150391 C 4.7012193 19.078451 4.3765017 19.006799 4.03125 18.904297 C 3.8097122 18.838511 3.7932078 18.82672 3.6699219 18.626953 C 3.4926151 18.339679 3.2364543 18.066986 3.0234375 17.941406 C 2.9252206 17.88352 2.84375 17.824347 2.84375 17.810547 C 2.843364 17.796887 2.9181257 17.743836 3.0097656 17.691406 C 3.1013965 17.638972 3.4167918 17.455345 3.7109375 17.283203 C 4.0051082 17.111046 4.5108397 16.855814 4.8339844 16.716797 C 5.5959826 16.388972 6.6290894 16.011951 6.6621094 16.050781 z M 15.089844 16.115234 C 15.122918 16.101687 15.2853 16.247052 15.742188 16.697266 C 16.103891 17.053688 16.59751 17.521606 16.839844 17.736328 C 17.254026 18.103306 17.555094 18.416294 17.873047 18.8125 L 18.009766 18.982422 L 17.90625 19.181641 C 17.849412 19.290606 17.724526 19.482025 17.628906 19.607422 C 17.533293 19.732816 17.294217 20.048164 17.097656 20.308594 C 16.740337 20.781934 16.305805 21.237918 15.982422 21.478516 C 15.887998 21.548768 15.800309 21.605469 15.787109 21.605469 C 15.757915 21.605469 15.533255 20.664675 15.416016 20.048828 C 15.28384 19.354384 15.259896 19.10605 15.222656 18.046875 C 15.203656 17.506721 15.165439 16.871364 15.136719 16.636719 C 15.107929 16.402081 15.083984 16.175269 15.083984 16.130859 C 15.083984 16.122845 15.085119 16.11717 15.089844 16.115234 z M 14.507812 18.632812 C 14.514422 18.639416 14.536774 18.794009 14.558594 18.976562 C 14.609346 19.39919 14.875983 20.740241 15.035156 21.375 C 15.16967 21.91142 15.16785 21.919116 14.941406 21.916016 C 14.871333 21.915066 14.761202 21.9241 14.695312 21.9375 C 14.629448 21.95082 14.552387 21.966356 14.523438 21.972656 C 14.494493 21.979026 14.423104 21.970985 14.365234 21.953125 C 14.307349 21.935345 14.186296 21.919469 14.097656 21.917969 C 13.829609 21.91367 13.832441 21.919585 13.972656 21.355469 C 14.115292 20.78164 14.390565 19.390071 14.453125 18.929688 C 14.476245 18.759812 14.501113 18.626113 14.507812 18.632812 z M 10.068359 18.888672 C 10.089322 18.886487 10.102716 18.889825 10.111328 18.898438 C 10.144158 18.931194 10.145254 18.957819 10.115234 19.005859 C 9.9847856 19.214748 9.7298015 19.720124 9.6191406 19.988281 C 9.4955447 20.287822 9.4782839 20.308182 9.2207031 20.505859 C 9.0730643 20.619163 8.7909398 20.853719 8.59375 21.027344 C 8.3965712 21.200964 8.0999926 21.459765 7.9335938 21.601562 C 7.7672179 21.74337 7.5356778 21.948277 7.4199219 22.058594 C 7.1811761 22.28612 6.8106967 22.542735 6.4082031 22.757812 C 6.2572183 22.838492 6.1210987 22.904297 6.1054688 22.904297 C 6.0637318 22.904297 6.3740892 22.335701 6.59375 22.009766 C 6.6977589 21.855438 6.8952013 21.609504 7.0332031 21.464844 C 7.17122 21.32016 7.4254734 21.038064 7.5976562 20.837891 C 7.7698411 20.637708 8.0299034 20.336479 8.1757812 20.167969 C 8.3216921 19.999468 8.4991926 19.782447 8.5703125 19.685547 C 8.6726354 19.546141 8.7427449 19.492307 8.9023438 19.429688 C 9.0132776 19.386169 9.3208878 19.239934 9.5859375 19.103516 C 9.8729075 18.955785 10.00547 18.895226 10.068359 18.888672 z M 18.945312 18.890625 C 19.012105 18.901839 19.15383 18.967918 19.423828 19.107422 C 19.689397 19.244634 19.994352 19.389748 20.101562 19.429688 C 20.263052 19.489845 20.322797 19.536056 20.445312 19.703125 C 20.623923 19.946765 21.51097 20.972427 21.923828 21.412109 C 22.087808 21.586737 22.305904 21.852487 22.408203 22.003906 C 22.585773 22.266679 22.90625 22.831419 22.90625 22.880859 C 22.90625 22.923666 22.855106 22.903431 22.589844 22.759766 C 22.148411 22.520705 21.746884 22.234715 21.414062 21.921875 C 20.976968 21.510995 19.949711 20.622708 19.705078 20.443359 C 19.538125 20.320982 19.489967 20.260974 19.429688 20.099609 C 19.389633 19.992394 19.245856 19.688078 19.109375 19.421875 C 18.924486 19.061036 18.870741 18.926144 18.900391 18.896484 C 18.907807 18.88907 18.923048 18.886887 18.945312 18.890625 z M 2.8066406 19.185547 C 2.8234316 19.185547 2.9639868 19.233719 3.1191406 19.292969 C 3.3760734 19.391083 3.4102995 19.41693 3.5058594 19.572266 C 3.6185713 19.755443 3.8491795 20.284111 3.9433594 20.574219 C 3.9751243 20.672095 4.0395175 20.963645 4.0859375 21.222656 C 4.1323575 21.481664 4.2097725 21.859932 4.2578125 22.0625 C 4.3058755 22.265059 4.3563506 22.516973 4.3691406 22.623047 C 4.4055846 22.924125 4.4875875 23.213633 4.5996094 23.435547 C 4.6560943 23.547459 4.7011719 23.644244 4.7011719 23.652344 C 4.7011719 23.660341 4.5895397 23.734226 4.4511719 23.816406 C 3.8991874 24.144335 3.0067267 24.79779 2.3027344 25.390625 C 1.9725907 25.668645 1.5416949 26.058366 1.3457031 26.255859 C 1.0699674 26.533741 0.98718936 26.600834 0.97460938 26.552734 C 0.95696939 26.485328 1.0012563 25.085949 1.0351562 24.658203 C 1.0655152 24.274653 1.1524838 23.740322 1.2460938 23.359375 C 1.2911777 23.176109 1.3403156 22.924226 1.3535156 22.798828 C 1.4141996 22.227967 1.6681952 21.390657 1.9511719 20.832031 C 2.0630288 20.611212 2.2938979 20.15101 2.4648438 19.808594 C 2.6357786 19.466174 2.7897906 19.185547 2.8066406 19.185547 z M 26.220703 19.191406 C 26.22803 19.198742 26.33766 19.417795 26.464844 19.677734 C 26.592005 19.937671 26.721043 20.197989 26.751953 20.255859 C 27.124142 20.952499 27.236339 21.193659 27.353516 21.552734 C 27.498254 21.996226 27.621283 22.511528 27.658203 22.833984 C 27.670346 22.940083 27.717152 23.193371 27.763672 23.396484 C 27.898709 23.986111 27.954281 24.414032 27.994141 25.201172 C 28.014431 25.606282 28.025631 26.092813 28.019531 26.283203 L 28.009766 26.630859 L 27.816406 26.410156 C 27.64953 26.218158 26.514874 25.218177 26.064453 24.867188 C 25.75276 24.624295 24.8803 24.016851 24.597656 23.845703 C 24.438506 23.749327 24.308594 23.665703 24.308594 23.658203 C 24.308594 23.650787 24.364031 23.518926 24.431641 23.365234 C 24.51411 23.177629 24.57783 22.948489 24.625 22.669922 C 24.663666 22.441694 24.726262 22.12893 24.763672 21.974609 C 24.80108 21.820285 24.868886 21.481133 24.916016 21.220703 C 25.021376 20.638297 25.132442 20.300737 25.382812 19.794922 L 25.576172 19.404297 L 25.890625 19.291016 C 26.064182 19.228946 26.213203 19.184106 26.220703 19.191406 z M 24.644531 19.685547 C 24.650985 19.691992 24.60077 19.791448 24.53125 19.90625 C 24.344622 20.214317 24.145119 20.623497 24.03125 20.931641 C 23.975972 21.081267 23.831564 21.423287 23.710938 21.693359 C 23.5903 21.963436 23.487922 22.190566 23.482422 22.197266 C 23.476832 22.203944 23.436851 22.140511 23.394531 22.056641 C 23.1734 21.618748 22.922079 21.300643 22.316406 20.697266 C 21.975352 20.357515 21.620897 20.017909 21.529297 19.943359 C 21.437636 19.868805 21.363281 19.798346 21.363281 19.785156 C 21.363281 19.772186 21.493212 19.781178 21.652344 19.804688 C 22.431294 19.919673 23.398627 19.89637 24.244141 19.744141 C 24.458542 19.705531 24.638031 19.679047 24.644531 19.685547 z M 4.359375 19.691406 C 4.368792 19.682006 4.5531583 19.705531 4.7675781 19.744141 C 5.6133053 19.89643 6.5798318 19.919753 7.359375 19.804688 C 7.5188638 19.781212 7.645925 19.77008 7.640625 19.78125 C 7.63548 19.792408 7.43255 19.986273 7.1914062 20.210938 C 6.6747288 20.692315 6.1611076 21.217198 6.0117188 21.414062 C 5.9531708 21.491222 5.8186395 21.696865 5.7128906 21.873047 L 5.5195312 22.193359 L 5.3496094 21.820312 C 5.2562935 21.615213 5.0969916 21.240966 4.9960938 20.988281 C 4.786723 20.463964 4.6801187 20.242805 4.4824219 19.929688 C 4.405719 19.808206 4.349875 19.700706 4.359375 19.691406 z M 18.509766 19.732422 L 18.603516 19.888672 C 18.746795 20.126797 18.973395 20.734566 19.046875 21.074219 C 19.324611 22.357797 19.279283 23.642631 18.910156 24.955078 C 18.871937 25.090953 18.81442 25.216848 18.78125 25.236328 C 18.352196 25.487656 18.055468 25.754272 17.919922 26.009766 C 17.874394 26.095582 17.830212 26.166016 17.820312 26.166016 C 17.79003 26.166016 17.075144 24.938902 16.931641 24.640625 C 16.688338 24.13488 16.192358 22.892685 16.042969 22.412109 C 16.031704 22.37589 16.122875 22.2835 16.318359 22.132812 C 16.755545 21.795738 17.00566 21.545284 17.570312 20.876953 C 18.263662 20.056323 18.351167 19.948213 18.435547 19.832031 L 18.509766 19.732422 z M 10.492188 19.755859 C 10.506619 19.761111 10.59454 19.861303 10.6875 19.980469 C 11.034907 20.42591 11.738613 21.249049 12.029297 21.548828 C 12.194701 21.719436 12.464923 21.961215 12.628906 22.087891 C 12.792893 22.214583 12.938105 22.329007 12.953125 22.341797 C 12.977193 22.362438 12.629779 23.366605 12.472656 23.728516 C 12.439145 23.805683 12.356082 24.002135 12.289062 24.166016 C 12.138077 24.535254 11.920903 24.951365 11.544922 25.587891 C 11.385391 25.857963 11.237354 26.097694 11.214844 26.121094 C 11.183236 26.154037 11.154774 26.130412 11.089844 26.017578 C 10.958992 25.790096 10.711883 25.547879 10.429688 25.369141 L 10.171875 25.205078 L 10.085938 24.921875 C 9.7600099 23.843391 9.6827139 22.620625 9.8710938 21.527344 C 9.9235227 21.223076 10.004754 20.850236 10.052734 20.701172 C 10.154203 20.385881 10.453828 19.741849 10.492188 19.755859 z M 9.2363281 21.34375 L 9.2128906 21.5 C 9.0941497 22.361896 9.1000276 23.304796 9.2265625 24.060547 C 9.2669025 24.30153 9.3093525 24.534565 9.3203125 24.578125 C 9.3462785 24.681558 9.3167893 24.675134 9.0859375 24.529297 C 8.7881598 24.341162 8.464448 24.183744 7.9921875 23.996094 C 7.2112463 23.685815 6.8003951 23.486506 6.859375 23.447266 C 6.888403 23.427977 7.0484459 23.332778 7.2148438 23.236328 C 7.5479264 23.04327 8.4158511 22.261462 8.7773438 21.828125 C 8.8869476 21.696726 9.0341588 21.532374 9.1054688 21.464844 L 9.2363281 21.34375 z M 19.783203 21.361328 C 19.798142 21.361328 19.870743 21.435704 19.945312 21.527344 C 20.01987 21.618975 20.359474 21.973408 20.699219 22.314453 C 21.302594 22.920133 21.620697 23.171445 22.058594 23.392578 C 22.14244 23.434918 22.205919 23.474769 22.199219 23.480469 C 22.161965 23.511431 21.161973 23.944187 20.931641 24.029297 C 20.638493 24.137614 20.195836 24.351299 19.974609 24.490234 L 19.972656 24.490234 C 19.764719 24.62079 19.679688 24.663222 19.679688 24.632812 C 19.679997 24.617665 19.71138 24.430954 19.75 24.21875 C 19.869876 23.560399 19.907785 22.868325 19.859375 22.205078 C 19.836015 21.885272 19.803749 21.564527 19.787109 21.492188 C 19.770709 21.41983 19.768183 21.361328 19.783203 21.361328 z M 14.511719 22.917969 C 14.547477 22.917905 14.579461 22.931389 14.632812 22.958984 C 14.715929 23.002044 14.795547 23.012057 14.931641 22.998047 C 15.063002 22.984497 15.119141 22.992154 15.119141 23.021484 C 15.119141 23.075177 14.890281 23.905616 14.837891 24.042969 C 14.81593 24.100563 14.735843 24.392113 14.658203 24.691406 C 14.580547 24.990699 14.510606 25.241147 14.503906 25.248047 C 14.497276 25.254827 14.476511 25.201243 14.457031 25.126953 C 14.279748 24.447488 14.224709 24.246405 14.136719 23.957031 C 14.080982 23.773763 13.995306 23.475817 13.947266 23.296875 L 13.861328 22.972656 L 14.035156 22.996094 C 14.159772 23.012634 14.25197 23.001504 14.363281 22.958984 C 14.435953 22.931172 14.475961 22.918033 14.511719 22.917969 z M 15.775391 23.634766 C 15.782187 23.632653 15.785156 23.644226 15.785156 23.671875 C 15.785156 23.728194 16.153376 24.643885 16.365234 25.115234 C 16.546881 25.519411 17.11536 26.487623 17.332031 26.761719 C 17.473541 26.94076 17.475819 26.950187 17.412109 26.998047 C 17.178173 27.173762 16.647132 27.372544 16.259766 27.427734 C 15.836997 27.487956 15.585328 27.453375 15.263672 27.291016 L 15.044922 27.179688 L 15.068359 26.962891 C 15.131673 26.331977 15.239582 25.631301 15.351562 25.130859 C 15.526398 24.349567 15.727814 23.649552 15.775391 23.634766 z M 13.273438 23.675781 C 13.317876 23.806303 13.574418 24.776988 13.642578 25.072266 C 13.74259 25.505348 13.84323 26.113176 13.90625 26.673828 C 13.96589 27.20418 13.96918 27.193385 13.652344 27.333984 C 13.301163 27.490016 12.787172 27.486335 12.294922 27.324219 C 12.022144 27.234383 11.594174 27.030276 11.558594 26.972656 C 11.545846 26.952075 11.5902 26.868279 11.65625 26.787109 C 11.834459 26.568144 12.40046 25.617887 12.585938 25.226562 C 12.674983 25.038702 12.862124 24.601146 13.001953 24.253906 C 13.1418 23.906668 13.263538 23.646831 13.273438 23.675781 z M 23.658203 24.306641 C 23.66553 24.306641 23.730654 24.404825 23.802734 24.525391 C 24.344881 25.432136 25.792423 27.260295 26.402344 27.808594 L 26.640625 28.023438 L 26.080078 28.019531 C 24.842337 28.009301 24.164677 27.940006 23.322266 27.742188 C 23.078656 27.684974 22.825146 27.638672 22.759766 27.638672 C 22.590686 27.638672 21.972608 27.490561 21.525391 27.34375 C 21.200584 27.237138 20.955736 27.122864 20.257812 26.75 C 20.199951 26.719079 19.939638 26.590054 19.679688 26.462891 C 19.419762 26.335732 19.200859 26.22605 19.193359 26.21875 C 19.186033 26.211414 19.230899 26.062235 19.292969 25.888672 L 19.40625 25.574219 L 19.796875 25.380859 C 20.302689 25.130493 20.640268 25.019426 21.222656 24.914062 C 21.483105 24.866932 21.822221 24.799129 21.976562 24.761719 C 22.130891 24.724331 22.443654 24.661697 22.671875 24.623047 C 22.95044 24.575855 23.177626 24.512157 23.365234 24.429688 C 23.518963 24.362118 23.650703 24.306641 23.658203 24.306641 z M 5.3339844 24.324219 C 5.3465034 24.316486 5.4831079 24.363278 5.6367188 24.429688 C 5.8179886 24.508055 6.0610704 24.575104 6.3300781 24.621094 C 6.5580409 24.660061 6.8327744 24.716411 6.9414062 24.744141 C 7.0500621 24.771826 7.3959617 24.842714 7.7089844 24.902344 C 8.3953787 25.033078 8.7011059 25.131314 9.2089844 25.382812 L 9.5957031 25.574219 L 9.7109375 25.890625 C 9.7749194 26.065146 9.8225062 26.21285 9.8164062 26.21875 C 9.8052143 26.229469 8.7352419 26.766856 8.0859375 27.087891 C 7.554843 27.350484 6.5842395 27.638672 6.2324219 27.638672 C 6.1649309 27.638672 5.9152251 27.685851 5.6777344 27.744141 C 5.4402636 27.802435 5.0081067 27.882492 4.71875 27.919922 C 4.1393496 27.995022 2.3860719 28.057836 2.3886719 28.003906 C 2.3894839 27.98641 2.4683832 27.912001 2.5644531 27.837891 C 2.718996 27.718704 3.0971533 27.298645 3.8671875 26.390625 C 4.1490742 26.058222 4.8837687 25.035202 5.1328125 24.628906 C 5.2310924 24.468613 5.3214044 24.331919 5.3339844 24.324219 z M 4.3339844 24.664062 C 4.3535224 24.683625 3.8152105 25.494365 3.3125 26.201172 C 2.7808375 26.948687 2.3494813 27.480152 2.0566406 27.75 C 1.9140668 27.881372 1.7679418 27.986975 1.7324219 27.984375 C 1.631424 27.976905 1.5071426 27.958439 1.3085938 27.917969 C 1.1383709 27.883301 1.1231937 27.87014 1.0898438 27.75 C 1.0701338 27.67892 1.0453831 27.525562 1.0332031 27.408203 L 1.0097656 27.195312 L 1.2324219 26.957031 C 1.4585326 26.715323 1.7085523 26.500706 2.2460938 26.089844 C 2.8312542 25.642589 4.3057544 24.635833 4.3339844 24.664062 z M 24.671875 24.669922 C 24.699595 24.642204 26.018573 25.54163 26.728516 26.072266 C 27.098879 26.34909 27.472733 26.663215 27.669922 26.865234 L 27.996094 27.201172 L 27.974609 27.357422 C 27.962869 27.444234 27.937659 27.599092 27.917969 27.699219 L 27.882812 27.880859 L 27.699219 27.916016 C 27.599076 27.935666 27.446145 27.960886 27.359375 27.972656 L 27.203125 27.994141 L 26.867188 27.667969 C 26.665194 27.470767 26.351052 27.096934 26.074219 26.726562 C 25.543597 26.016613 24.644145 24.697652 24.671875 24.669922 z " />
  <text
     xml:space="preserve"
     style="font-style:normal;font-variant:normal;font-weight:normal;font-stretch:normal;font-size:6.73297px;line-height:1;font-family:'Gill Sans Nova';-inkscape-font-specification:'Gill Sans Nova';text-align:end;letter-spacing:0px;word-spacing:0px;text-anchor:end;stroke-width:0.999997;fill:#00503c;fill-opacity:1"
     x="113.50633"
     y="9.6453552"
     id="text11946-6"><tspan
       sodipodi:role="line"
       id="tspan11944-8"
       x="113.50632"
       y="9.6453552"
       style="font-style:normal;font-variant:normal;font-weight:normal;font-stretch:normal;font-family:'Gill Sans Nova';-inkscape-font-specification:'Gill Sans Nova';stroke-width:0.999997;fill:#00503c;fill-opacity:1">Praxis fr Kunsttherapie PTM</tspan></text>
  <text
     xml:space="preserve"
     style="font-style:normal;font-variant:normal;font-weight:500;font-stretch:normal;font-size:15.2765px;line-height:1;font-family:'Gill Sans Nova';-inkscape-font-specification:'Gill Sans Nova Medium';text-align:end;letter-spacing:0px;word-spacing:0px;text-anchor:end;stroke-width:0.999997;fill:#00503c;fill-opacity:1"
     x="113.91772"
     y="23.100777"
     id="text11946-3-6"><tspan
       sodipodi:role="line"
       id="tspan11944-7-5"
       x="113.91772"
       y="23.100777"
       style="font-style:normal;font-variant:normal;font-weight:500;font-stretch:normal;font-family:'Gill Sans Nova';-inkscape-font-specification:'Gill Sans Nova Medium';stroke-width:0.999997;fill:#00503c;fill-opacity:1">farbenweg.ch</tspan></text>
</svg>
