<?xml version="1.0" encoding="UTF-8"?>
<svg width="131px" height="40px" viewBox="0 0 131 40" version="1.1" xmlns="http://www.w3.org/2000/svg" xmlns:xlink="http://www.w3.org/1999/xlink">
    <!-- Generator: Sketch 42 (36781) - http://www.bohemiancoding.com/sketch -->
    <title>kunsttherapie  basel</title>
    <desc>Created with Sketch.</desc>
    <defs></defs>
    <g id="Welcome" stroke="none" stroke-width="1" fill="none" fill-rule="evenodd">
        <g id="Desktop-HD" transform="translate(-1161.000000, -481.000000)" fill="#FFFFFF">
            <g id="navigation">
                <path d="M1167.71987,486.021423 L1164.98648,490.198042 L1163.43391,490.198042 L1163.43391,481.932272 L1161.116,481.932272 L1161.116,497.654728 L1163.43391,497.654728 L1163.43391,492.209817 L1165.00835,492.209817 L1168.06974,497.654728 L1170.67193,497.654728 L1166.95452,490.963391 L1170.08152,486.261961 L1167.71987,486.021423 Z M1179.30944,497.654728 L1181.45242,497.654728 L1181.45242,486.021423 L1179.1345,486.021423 L1179.1345,494.637066 C1178.28169,495.380548 1177.42887,495.905359 1176.37925,495.905359 C1175.52643,495.905359 1174.97975,495.59922 1174.82668,494.790136 C1174.78295,494.549598 1174.76108,494.287193 1174.76108,493.740515 L1174.76108,486.021423 L1172.44317,486.305696 L1172.44317,494.046654 C1172.44317,494.483997 1172.46503,495.096276 1172.53063,495.489884 C1172.77117,497.020582 1173.77706,497.873399 1175.65763,497.873399 C1177.10086,497.873399 1178.23795,497.26112 1179.24384,496.43017 L1179.30944,497.654728 Z M1186.83173,486.021423 L1184.68875,486.021423 L1184.68875,497.654728 L1187.00666,497.654728 L1187.00666,489.060952 C1187.70641,488.426806 1188.66857,487.792659 1189.71819,487.792659 C1190.68034,487.792659 1191.20515,488.120666 1191.33635,488.951616 C1191.38009,489.192155 1191.38009,489.629497 1191.38009,489.935637 L1191.38009,497.654728 L1193.67613,497.654728 L1193.67613,489.629497 C1193.67613,489.214022 1193.67613,488.579876 1193.61053,488.186267 C1193.34813,486.677437 1192.36411,485.802752 1190.48354,485.802752 C1189.04031,485.802752 1187.79388,486.5025 1186.89733,487.267849 L1186.83173,486.021423 Z M1196.05965,496.670708 C1196.65006,497.173652 1198.2901,497.917134 1199.99573,497.917134 C1202.77285,497.917134 1204.21608,496.342701 1204.21608,494.352794 C1204.21608,492.166082 1202.61978,491.466335 1201.15469,491.028992 L1200.93602,490.963391 C1199.68959,490.59165 1198.57437,490.219909 1198.57437,489.060952 C1198.57437,488.033198 1199.38345,487.617722 1200.36747,487.617722 C1201.28589,487.617722 1202.11684,488.120666 1202.48858,489.214022 L1204.28169,488.536141 C1203.99741,487.289716 1202.86032,485.802752 1200.30187,485.802752 C1198.13703,485.802752 1196.27832,487.005443 1196.27832,489.235889 C1196.27832,491.57567 1197.87462,492.122348 1199.38345,492.625292 L1199.58026,492.690893 C1200.82668,493.106368 1201.8763,493.456242 1201.8763,494.593332 C1201.8763,495.642954 1201.13282,496.080296 1199.952,496.080296 C1198.83677,496.080296 1197.32794,495.314947 1196.6938,494.724535 L1196.05965,496.670708 Z M1212.00078,487.748925 L1212.00078,486.021423 L1209.24552,486.021423 L1209.24552,482.960027 L1206.92761,484.097117 L1206.92761,486.021423 L1205.41878,486.021423 L1205.41878,487.748925 L1206.92761,487.748925 L1206.92761,494.812003 C1206.92761,496.670708 1207.67109,497.917134 1209.77033,497.917134 C1210.62315,497.917134 1211.60717,497.632861 1212.17571,497.348589 L1211.91331,495.533618 C1211.41037,495.774156 1210.90742,495.97096 1210.38261,495.97096 C1209.26739,495.97096 1209.24552,495.052542 1209.24552,493.959186 L1209.24552,487.748925 L1212.00078,487.748925 Z M1219.61053,487.748925 L1219.61053,486.021423 L1216.85528,486.021423 L1216.85528,482.960027 L1214.53736,484.097117 L1214.53736,486.021423 L1213.02853,486.021423 L1213.02853,487.748925 L1214.53736,487.748925 L1214.53736,494.812003 C1214.53736,496.670708 1215.28084,497.917134 1217.38009,497.917134 C1218.2329,497.917134 1219.21693,497.632861 1219.78547,497.348589 L1219.52306,495.533618 C1219.02012,495.774156 1218.51718,495.97096 1217.99237,495.97096 C1216.87714,495.97096 1216.85528,495.052542 1216.85528,493.959186 L1216.85528,487.748925 L1219.61053,487.748925 Z M1227.72323,485.802752 C1226.32374,485.802752 1225.09918,486.458765 1224.22449,487.202247 L1224.22449,481.932272 L1221.90658,481.932272 L1221.90658,497.654728 L1224.22449,497.654728 L1224.22449,489.060952 C1224.94611,488.404939 1225.90826,487.792659 1226.93602,487.792659 C1227.89817,487.792659 1228.42298,488.120666 1228.55418,488.951616 C1228.59792,489.192155 1228.59792,489.629497 1228.59792,489.935637 L1228.59792,497.654728 L1230.89396,497.654728 L1230.89396,489.629497 C1230.89396,489.214022 1230.89396,488.579876 1230.82836,488.186267 C1230.56596,486.677437 1229.58194,485.802752 1227.72323,485.802752 Z M1242.3086,492.209817 L1235.9234,492.209817 C1235.96714,494.615199 1236.97302,495.97096 1238.85359,495.97096 C1239.99068,495.97096 1241.06217,495.59922 1241.95872,495.118143 L1242.11179,497.086183 C1241.36831,497.501659 1240.03442,497.917134 1238.61306,497.917134 C1234.63324,497.917134 1233.58362,495.030675 1233.58362,491.72874 C1233.58362,487.508387 1235.57353,485.802752 1238.17571,485.802752 C1241.08404,485.802752 1242.3086,487.770792 1242.3086,491.269531 L1242.3086,492.209817 Z M1240.07815,490.679119 C1240.07815,488.579876 1239.35654,487.573988 1238.13198,487.573988 C1236.62315,487.573988 1235.94527,489.082819 1235.94527,490.679119 L1240.07815,490.679119 Z M1249.91835,485.802752 C1248.71566,485.802752 1247.60044,486.546234 1246.96629,487.267849 L1246.87883,486.021423 L1244.80145,486.021423 L1244.80145,497.654728 L1247.11936,497.654728 L1247.11936,489.126553 C1247.95031,488.251869 1248.65006,487.748925 1249.43728,487.748925 C1249.96209,487.748925 1250.26823,488.055065 1250.63997,488.711078 L1252.32374,487.508387 C1251.77706,486.393164 1251.09918,485.802752 1249.91835,485.802752 Z M1254.40111,488.055065 L1254.20431,486.261961 C1254.94779,486.04329 1256.47849,485.802752 1257.50624,485.802752 C1261.04872,485.802752 1261.8578,487.355317 1261.8578,490.722853 L1261.8578,494.965073 C1261.8578,495.730422 1262.07647,495.992828 1262.49195,495.992828 C1262.66688,495.992828 1262.86369,495.949093 1263.12609,495.861625 L1263.27916,497.589127 C1262.75435,497.764064 1262.12021,497.873399 1261.63913,497.873399 C1260.69884,497.873399 1260.15216,497.56726 1259.91163,496.473904 C1259.10254,497.26112 1258.00919,497.873399 1256.60969,497.873399 C1254.29178,497.873399 1253.22029,496.233366 1253.22029,494.243458 C1253.22029,491.510069 1254.88219,490.219909 1257.70305,490.219909 C1258.35906,490.219909 1258.94947,490.285511 1259.62735,490.43858 L1259.62735,489.826301 C1259.62735,488.295603 1258.86201,487.617722 1257.17824,487.617722 C1256.25982,487.617722 1255.16646,487.814526 1254.40111,488.055065 Z M1259.62735,494.965073 L1259.62735,491.969278 C1259.16814,491.838076 1258.6652,491.72874 1258.09666,491.72874 C1256.47849,491.72874 1255.56007,492.362886 1255.56007,494.068521 C1255.56007,495.205611 1256.10675,496.080296 1257.26571,496.080296 C1258.14039,496.080296 1259.05881,495.577352 1259.62735,494.965073 Z M1265.26907,486.021423 L1267.43391,486.021423 L1267.52138,487.114779 C1268.11179,486.699304 1269.35822,485.802752 1270.80145,485.802752 C1272.87883,485.802752 1274.38766,487.442786 1274.38766,490.941524 C1274.38766,494.768269 1273.25057,497.829665 1270.12357,497.829665 C1269.09581,497.829665 1268.33047,497.654728 1267.56512,497.173652 L1267.56512,502.224955 L1265.26907,502.224955 L1265.26907,486.021423 Z M1267.58698,488.798547 L1267.58698,495.314947 C1267.98059,495.621087 1268.65847,496.014695 1269.68623,496.014695 C1271.47933,496.014695 1271.98227,493.827983 1271.98227,491.444468 C1271.98227,488.536141 1271.21693,487.814526 1270.05797,487.814526 C1269.13955,487.814526 1268.13366,488.404939 1267.58698,488.798547 Z M1277.05544,486.021423 L1277.05544,497.654728 L1279.35149,497.654728 L1279.35149,486.021423 L1277.05544,486.021423 Z M1276.81491,483.025628 C1276.81491,483.878446 1277.38345,484.425124 1278.19253,484.425124 C1278.97975,484.425124 1279.57016,483.944047 1279.57016,483.025628 C1279.57016,482.129077 1279.06722,481.648 1278.19253,481.648 C1277.40532,481.648 1276.81491,482.129077 1276.81491,483.025628 Z M1290.76613,492.209817 L1284.38093,492.209817 C1284.42466,494.615199 1285.43055,495.97096 1287.31112,495.97096 C1288.44821,495.97096 1289.5197,495.59922 1290.41625,495.118143 L1290.56932,497.086183 C1289.82584,497.501659 1288.49195,497.917134 1287.07058,497.917134 C1283.09077,497.917134 1282.04115,495.030675 1282.04115,491.72874 C1282.04115,487.508387 1284.03105,485.802752 1286.63324,485.802752 C1289.54157,485.802752 1290.76613,487.770792 1290.76613,491.269531 L1290.76613,492.209817 Z M1288.53568,490.679119 C1288.53568,488.579876 1287.81407,487.573988 1286.58951,487.573988 C1285.08068,487.573988 1284.4028,489.082819 1284.4028,490.679119 L1288.53568,490.679119 Z M1229.07171,499.165989 L1229.07171,505.959373 C1229.85892,505.434562 1231.52082,504.355784 1233.3285,504.355784 C1236.18581,504.355784 1238.16843,506.396715 1238.16843,511.178324 C1238.16843,516.630525 1236.24412,520.420825 1231.22926,520.420825 C1229.18833,520.420825 1227.23487,519.808546 1226.01031,519.108798 L1226.01031,499.165989 L1229.07171,499.165989 Z M1229.07171,508.262709 L1229.07171,517.388585 C1229.68398,517.709303 1230.4712,518.000864 1231.43335,518.000864 C1234.14488,518.000864 1234.96125,515.318498 1234.96125,511.907228 C1234.96125,508.02946 1233.94078,506.950682 1232.36635,506.950682 C1231.14179,506.950682 1229.82977,507.767054 1229.07171,508.262709 Z M1242.39607,507.329712 L1242.13366,504.938907 C1243.12497,504.647346 1245.1659,504.326628 1246.53624,504.326628 C1251.25954,504.326628 1252.33832,506.396715 1252.33832,510.886763 L1252.33832,516.543057 C1252.33832,517.563522 1252.62988,517.913396 1253.18384,517.913396 C1253.41709,517.913396 1253.6795,517.855083 1254.02937,517.738459 L1254.23347,520.041795 C1253.53372,520.275044 1252.68819,520.420825 1252.04675,520.420825 C1250.79304,520.420825 1250.06414,520.012639 1249.74342,518.554831 C1248.66464,519.604453 1247.20683,520.420825 1245.34084,520.420825 C1242.25029,520.420825 1240.82163,518.234113 1240.82163,515.580903 C1240.82163,511.936384 1243.0375,510.216171 1246.79865,510.216171 C1247.67333,510.216171 1248.46055,510.30364 1249.36439,510.507733 L1249.36439,509.69136 C1249.36439,507.65043 1248.34392,506.746589 1246.0989,506.746589 C1244.87434,506.746589 1243.41653,507.008994 1242.39607,507.329712 Z M1249.36439,516.543057 L1249.36439,512.548663 C1248.75211,512.373727 1248.08152,512.227946 1247.32346,512.227946 C1245.1659,512.227946 1243.94134,513.073474 1243.94134,515.347654 C1243.94134,516.863774 1244.67025,518.03002 1246.21552,518.03002 C1247.38177,518.03002 1248.60633,517.359429 1249.36439,516.543057 Z M1255.72043,518.817237 C1256.50765,519.487828 1258.69436,520.479137 1260.96854,520.479137 C1264.67137,520.479137 1266.59567,518.379894 1266.59567,515.726684 C1266.59567,512.811069 1264.46728,511.878072 1262.51381,511.294949 L1262.22225,511.20748 C1260.56035,510.711826 1259.07339,510.216171 1259.07339,508.670895 C1259.07339,507.300556 1260.15216,506.746589 1261.46419,506.746589 C1262.68875,506.746589 1263.79668,507.41718 1264.29234,508.874988 L1266.68314,507.971147 C1266.30411,506.309247 1264.78799,504.326628 1261.37672,504.326628 C1258.49026,504.326628 1256.01199,505.930217 1256.01199,508.904144 C1256.01199,512.023853 1258.14039,512.752757 1260.15216,513.423348 L1260.41457,513.510817 C1262.07647,514.064783 1263.47597,514.531282 1263.47597,516.047402 C1263.47597,517.446897 1262.48466,518.03002 1260.91022,518.03002 C1259.42326,518.03002 1257.41149,517.009555 1256.56596,516.222339 L1255.72043,518.817237 Z M1280.76557,512.869381 L1272.25197,512.869381 C1272.31028,516.076558 1273.65146,517.88424 1276.15889,517.88424 C1277.67501,517.88424 1279.10366,517.388585 1280.29907,516.74715 L1280.50316,519.371203 C1279.51185,519.92517 1277.73333,520.479137 1275.83818,520.479137 C1270.53176,520.479137 1269.13226,516.630525 1269.13226,512.227946 C1269.13226,506.600808 1271.78547,504.326628 1275.25505,504.326628 C1279.13282,504.326628 1280.76557,506.950682 1280.76557,511.615667 L1280.76557,512.869381 Z M1277.79164,510.82845 C1277.79164,508.02946 1276.82948,506.688277 1275.19674,506.688277 C1273.18497,506.688277 1272.28112,508.700051 1272.28112,510.82845 L1277.79164,510.82845 Z M1283.97274,516.105714 C1283.97274,518.700612 1284.78911,520.420825 1287.82135,520.420825 C1288.87098,520.420825 1290.183,520.15842 1291.116,519.721077 L1290.73697,517.301117 C1289.94975,517.65099 1289.16254,517.88424 1288.55026,517.88424 C1287.47148,517.88424 1287.09245,517.213648 1287.09245,515.697528 L1287.09245,499.165989 L1283.97274,499.165989 L1283.97274,516.105714 Z" id="kunsttherapie--basel"></path>
            </g>
        </g>
    </g>
</svg>