<svg width="54" height="54" viewBox="0 0 14.287 14.287" xml:space="preserve" xmlns:xlink="http://www.w3.org/1999/xlink" xmlns="http://www.w3.org/2000/svg"><defs><radialGradient xlink:href="#a" id="j" cx="-9.808" cy="87.923" fx="-9.808" fy="87.923" r="7.925" gradientUnits="userSpaceOnUse" gradientTransform="translate(15.985 8.884) scale(.90146)"/><radialGradient xlink:href="#b" id="l" gradientUnits="userSpaceOnUse" gradientTransform="translate(22.63 4.723) scale(.86923)" cx="-9.808" cy="87.923" fx="-9.808" fy="87.923" r="7.925"/><radialGradient xlink:href="#c" id="o" gradientUnits="userSpaceOnUse" gradientTransform="matrix(.13293 0 0 .13293 3.929 80.972)" cx="-9.808" cy="87.923" fx="-9.808" fy="87.923" r="7.925"/><radialGradient xlink:href="#d" id="m" gradientUnits="userSpaceOnUse" gradientTransform="translate(22.63 18.574) scale(.86923)" cx="-9.808" cy="87.923" fx="-9.808" fy="87.923" r="7.925"/><radialGradient xlink:href="#e" id="n" gradientUnits="userSpaceOnUse" gradientTransform="translate(8.737 18.574) scale(.86923)" cx="-9.808" cy="87.923" fx="-9.808" fy="87.923" r="7.925"/><radialGradient xlink:href="#f" id="k" gradientUnits="userSpaceOnUse" gradientTransform="translate(8.652 4.638) scale(.86923)" cx="-9.808" cy="87.923" fx="-9.808" fy="87.923" r="7.925"/><radialGradient xlink:href="#g" id="p" gradientUnits="userSpaceOnUse" gradientTransform="matrix(.13293 0 0 .13293 12.818 80.882)" cx="-9.808" cy="87.923" fx="-9.808" fy="87.923" r="7.925"/><radialGradient xlink:href="#h" id="q" gradientUnits="userSpaceOnUse" gradientTransform="matrix(.13293 0 0 .13293 3.929 71.992)" cx="-9.808" cy="87.923" fx="-9.808" fy="87.923" r="7.925"/><radialGradient xlink:href="#i" id="r" gradientUnits="userSpaceOnUse" gradientTransform="matrix(.13293 0 0 .13293 12.879 72.022)" cx="-9.808" cy="87.923" fx="-9.808" fy="87.923" r="7.925"/><linearGradient id="f"><stop style="stop-color:#f07864;stop-opacity:1" offset="0"/><stop style="stop-color:#f07864;stop-opacity:1" offset=".204"/><stop style="stop-color:#00503c;stop-opacity:1" offset=".653"/><stop style="stop-color:#00503c;stop-opacity:0" offset="1"/></linearGradient><linearGradient id="e"><stop style="stop-color:#f07864;stop-opacity:1" offset="0"/><stop style="stop-color:#f07864;stop-opacity:1" offset=".204"/><stop style="stop-color:#00503c;stop-opacity:1" offset=".653"/><stop style="stop-color:#00503c;stop-opacity:0" offset="1"/></linearGradient><linearGradient id="b"><stop style="stop-color:#f07864;stop-opacity:1" offset="0"/><stop style="stop-color:#f07864;stop-opacity:1" offset=".204"/><stop style="stop-color:#00503c;stop-opacity:1" offset=".653"/><stop style="stop-color:#00503c;stop-opacity:0" offset="1"/></linearGradient><linearGradient id="i"><stop style="stop-color:#00b4a0;stop-opacity:1" offset="0"/><stop style="stop-color:#00b4a0;stop-opacity:1" offset=".189"/><stop style="stop-color:#00503c;stop-opacity:0" offset="1"/></linearGradient><linearGradient id="c"><stop style="stop-color:#00b4a0;stop-opacity:1" offset="0"/><stop style="stop-color:#00b4a0;stop-opacity:1" offset=".168"/><stop style="stop-color:#00503c;stop-opacity:0" offset="1"/></linearGradient><linearGradient id="g"><stop style="stop-color:#00b4a0;stop-opacity:1" offset="0"/><stop style="stop-color:#00b4a0;stop-opacity:1" offset=".166"/><stop style="stop-color:#00503c;stop-opacity:0" offset="1"/></linearGradient><linearGradient id="h"><stop style="stop-color:#00b4a0;stop-opacity:1" offset="0"/><stop style="stop-color:#00b4a0;stop-opacity:1" offset=".207"/><stop style="stop-color:#00503c;stop-opacity:0" offset="1"/></linearGradient><linearGradient id="d"><stop style="stop-color:#f07864;stop-opacity:1" offset="0"/><stop style="stop-color:#f07864;stop-opacity:1" offset=".204"/><stop style="stop-color:#00503c;stop-opacity:1" offset=".653"/><stop style="stop-color:#00503c;stop-opacity:0" offset="1"/></linearGradient><linearGradient id="a"><stop style="stop-color:#f07864;stop-opacity:1" offset="0"/><stop style="stop-color:#f07864;stop-opacity:1" offset=".253"/><stop style="stop-color:#956854;stop-opacity:1" offset=".382"/><stop style="stop-color:#00503c;stop-opacity:1" offset=".648"/><stop style="stop-color:#00503c;stop-opacity:1" offset="1"/></linearGradient><pattern patternUnits="userSpaceOnUse" width="104.902" height="104.741" patternTransform="translate(-25.556 -25.795)" id="s"><path style="fill:url(#j);fill-opacity:1;stroke-width:.264584;paint-order:markers stroke fill" d="M0 81h14.287v14.287H0z" transform="matrix(3.77953 0 0 3.77953 25.556 -280.347)"/><path style="fill:url(#k);fill-opacity:1;stroke-width:.264583;paint-order:markers stroke fill" d="M-6.762 74.175H7.015v13.777H-6.762z" transform="matrix(3.77953 0 0 3.77953 25.556 -280.347)"/><path style="fill:url(#l);fill-opacity:1;stroke-width:.264583;paint-order:markers stroke fill" d="M7.217 74.26h13.777v13.777H7.217z" transform="matrix(3.77953 0 0 3.77953 25.556 -280.347)"/><path style="fill:url(#m);fill-opacity:1;stroke-width:.264583;paint-order:markers stroke fill" d="M7.217 88.111h13.777v13.777H7.217z" transform="matrix(3.77953 0 0 3.77953 25.556 -280.347)"/><path style="fill:url(#n);fill-opacity:1;stroke-width:.264583;paint-order:markers stroke fill" d="M-6.677 88.111H7.1v13.777H-6.677z" transform="matrix(3.77953 0 0 3.77953 25.556 -280.347)"/><path style="opacity:1;fill:url(#o);fill-opacity:1;stroke-width:.264583;paint-order:markers stroke fill" d="M1.571 91.607h2.107v2.107H1.571z" transform="matrix(3.77953 0 0 3.77953 25.556 -280.347)"/><path style="opacity:1;fill:url(#p);fill-opacity:1;stroke-width:.264583;paint-order:markers stroke fill" d="M10.461 91.516h2.107v2.107h-2.107z" transform="matrix(3.77953 0 0 3.77953 25.556 -280.347)"/><path style="opacity:1;fill:url(#q);fill-opacity:1;stroke-width:.264583;paint-order:markers stroke fill" d="M1.571 82.626h2.107v2.107H1.571z" transform="matrix(3.77953 0 0 3.77953 25.556 -280.347)"/><path style="opacity:1;fill:url(#r);fill-opacity:1;stroke-width:.264583;paint-order:markers stroke fill" d="M10.522 82.656h2.107v2.107h-2.107z" transform="matrix(3.77953 0 0 3.77953 25.556 -280.347)"/></pattern></defs><path style="fill:none;stroke-width:.264583" d="M-106.582 112.092h384.036v216.02h-384.036z" transform="translate(0 -81)"/><path style="fill:none;stroke-width:.264583" d="M-17.95 83.037h198.027v111.39H-17.95z" transform="translate(0 -81)"/><path style="fill:#fff;stroke-width:.309999;paint-order:markers stroke fill" d="M0 81h14.287v14.287H0z" transform="translate(0 -81)"/><path style="fill:url(#s)" d="M3.207 0C2.99 0 2.59.338 1.465 1.463.339 2.588.002 2.988.002 3.205c0 .148.145.245.185.125.035-.103.335-.39.407-.39.027 0-.04.27-.147.603a5.64 5.64 0 0 0-.244 1.225c-.076.954.117 4.724.285 5.584.05.251.125.662.166.914.35 2.126.945 4.14 1.764 5.976.104.234.304.734.445 1.113.142.38.317.807.389.948l.133.256-.319.347c-.419.459-1.01 1.42-1.271 2.07a12.32 12.32 0 0 0-.397 1.243c-.158.614-.187.845-.187 1.6v.88l.346.65.343.649-.36.709-.36.709v.643c0 1.74.708 3.631 1.883 5.025.267.317.287.366.222.521-.04.095-.247.614-.463 1.153-.215.539-.543 1.348-.728 1.797C1.497 38.999.86 41.22.72 42.355c-.031.252-.118.735-.192 1.077-.135.625-.22 1.674-.32 3.95-.07 1.58-.013 2.307.238 3.087.107.332.173.605.145.605-.029 0-.144-.102-.254-.228-.11-.126-.23-.229-.268-.229-.145 0-.055.332.172.631.354.466 2.47 2.535 2.717 2.656l-.002.002c.436.215.549.077.2-.244-.291-.266-.264-.342.07-.203.864.361 1.74.42 4.384.293 1.578-.076 2.41-.158 3.065-.299.254-.055.727-.139 1.05-.187 1.616-.243 3.498-.813 5.42-1.643.36-.155.889-.369 1.176-.475.288-.106.682-.266.877-.353l.356-.158.437.365c1.384 1.157 3.526 1.916 5.147 1.822.459-.027.568-.063 1.203-.394.384-.201.713-.341.73-.315.017.028.319.194.67.37l.639.32.816-.004c.908-.005 1.743-.172 2.705-.543.7-.27 1.688-.87 2.133-1.293l.365-.348.518.227c.284.124.78.328 1.103.45.324.124 1.015.4 1.536.612 1.55.635 3.597 1.22 4.834 1.383.269.036.693.108.945.162.684.149 1.48.228 3.037.301 2.691.126 3.362.084 4.303-.266.193-.072.369-.112.388-.093.053.052-.325.426-.39.386-.03-.019-.055.014-.055.07 0 .179.184.182.473.01.35-.208 2.672-2.545 2.822-2.84.122-.24.096-.402-.064-.402-.058 0-.088.024-.069.055.04.063-.334.443-.385.392-.018-.018.037-.237.124-.486.295-.854.32-1.12.275-2.846-.055-2.14-.153-3.48-.31-4.234-.072-.341-.16-.842-.196-1.111-.165-1.242-.75-3.284-1.383-4.832a83.85 83.85 0 0 1-.611-1.535 29.173 29.173 0 0 0-.45-1.106l-.226-.516.348-.365c.423-.445 1.021-1.436 1.29-2.135.372-.962.54-1.797.546-2.705l.004-.816-.32-.639c-.176-.351-.342-.65-.37-.668-.027-.017.114-.346.315-.73.331-.635.368-.744.394-1.203.094-1.621-.665-3.763-1.822-5.147l-.365-.437.16-.356c.087-.195.242-.581.346-.86.103-.277.317-.806.474-1.175.859-2.017 1.404-3.816 1.649-5.44.048-.323.146-.865.216-1.206.16-.774.259-2.148.31-4.27.038-1.524.033-1.682-.095-2.21a7.326 7.326 0 0 0-.238-.811c-.14-.336-.063-.362.203-.07.246.268.387.264.318-.01-.064-.26-.27-.502-1.39-1.631C51.455.368 51.013 0 50.777 0c-.219 0-.198.1.07.336.126.11.23.224.23.252 0 .028-.272-.036-.604-.143-.78-.251-1.508-.308-3.086-.238-2.277.1-3.326.185-3.951.32-.342.074-.827.158-1.079.19-1.135.14-3.356.776-4.8 1.373-.45.185-1.216.493-1.703.683-.488.19-.978.393-1.09.452-.286.147-.313.14-.692-.178-1.38-1.163-3.278-1.871-5.011-1.871h-.643l-.709.361-.709.36-.648-.344-.649-.344h-.883c-.754 0-.985.029-1.6.187a12.31 12.31 0 0 0-1.24.395c-.65.262-1.613.855-2.072 1.273l-.347.317-.256-.131a12.674 12.674 0 0 0-.946-.389c-.379-.141-.881-.343-1.115-.447-1.837-.82-3.848-1.413-5.974-1.764a37.117 37.117 0 0 1-.916-.164C9.494.318 5.724.126 4.77.201c-.393.031-.843.121-1.225.244-.332.107-.604.172-.604.145 0-.072.29-.37.393-.404.12-.04.02-.186-.127-.186zm1.51 1.799c.722-.01 3.256.108 3.978.195.452.055 1.143.174 1.535.266.393.091.991.206 1.332.254.703.099 1.628.309 2.002.453.139.053.383.129.541.17.225.057 4.072 1.952 4.176 2.056.013.013-.077.281-.199.596l-.223.572-.453.246c-1.137.619-1.635.76-5.092 1.432-1.233.24-1.523.316-1.931.514a9.89 9.89 0 0 1-.424.199 7.53 7.53 0 0 1-.326-.506c-1.096-1.78-3.26-4.524-4.606-5.84-.33-.323-.545-.578-.5-.595a.98.98 0 0 1 .19-.012zm44.574.004c.085 0 .139.003.154.008.09.023-.035.18-.552.693-.797.79-2.36 2.631-3.038 3.578-.894 1.248-1.223 1.73-1.503 2.201-.153.258-.296.467-.319.465a3.63 3.63 0 0 1-.406-.191c-.396-.205-.936-.358-1.498-.426a12.498 12.498 0 0 1-1.045-.205 35.2 35.2 0 0 0-1.563-.32 13.115 13.115 0 0 1-1.209-.266c-.54-.176-1.524-.605-1.865-.815-.289-.178-.335-.242-.517-.72a5.566 5.566 0 0 1-.201-.582c0-.032.522-.319 1.16-.637.637-.318 1.495-.749 1.906-.957 1.04-.527 2.597-1 3.66-1.113a9.855 9.855 0 0 0 1.045-.198c.71-.174 1.704-.336 2.418-.392a67.61 67.61 0 0 1 3.373-.123zm-45.967.074.469.416c.47.418 1.206 1.302 2.084 2.498.539.734 2.225 3.211 2.225 3.27 0 .087-.158-.01-1.41-.864-2.4-1.636-3.748-2.682-4.395-3.408L1.88 3.32l.043-.369c.083-.71.145-.85.416-.922.133-.035.41-.085.613-.11l.371-.042zm47.317.002.398.04c.219.023.506.07.637.106.216.06.245.096.306.375.038.17.085.45.108.621l.04.313-.444.48c-.678.734-1.991 1.756-4.135 3.215-1.35.919-1.633 1.098-1.633 1.032 0-.107 1.935-2.922 2.668-3.881.765-1.001 1.161-1.466 1.611-1.887l.444-.414zM24.299 2.91c.725-.002.767.005 1.195.219.244.122.457.243.473.27.035.056-.122 1.459-.266 2.376-.13.838-.423 2.133-.72 3.205-.13.467-.257.871-.284.899-.026.028-.203-.34-.392-.816-.78-1.962-1.765-3.85-2.524-4.834-.159-.207-.29-.4-.29-.428 0-.1.888-.526 1.47-.707.498-.155.702-.183 1.338-.184zm4.984.002c.118-.003.266-.002.463 0 .705.006.857.03 1.406.215.586.197 1.264.532 1.346.664.02.034-.077.202-.219.373-.393.476-1.488 2.352-1.869 3.205-.187.42-.5 1.167-.695 1.66-.195.494-.372.897-.393.897-.049 0-.589-2.022-.802-3.004-.179-.82-.414-2.464-.446-3.127l-.02-.418.45-.236c.336-.176.424-.22.78-.229zm22.865 1.531c.036-.001.041.683.014 1.68-.05 1.836-.199 3.228-.46 4.3-.09.364-.191.893-.227 1.177a11.616 11.616 0 0 1-1.147 3.683c-.23.45-.66 1.309-.955 1.91-.296.602-.57 1.09-.61 1.086-.094-.009-.955-.356-1.085-.437-.138-.086-.727-1.296-.936-1.924-.093-.28-.258-.986-.369-1.568a35.229 35.229 0 0 0-.297-1.428 19.628 19.628 0 0 1-.224-1.139 5.863 5.863 0 0 0-.358-1.29c-.124-.287-.213-.54-.2-.563.015-.024.273-.192.571-.375.757-.464 2.66-1.833 3.28-2.358 1.69-1.434 2.471-2.138 2.693-2.426.138-.178.278-.326.31-.328zm-50.316.07c.063.01.282.2.578.507C3.705 6.355 6.424 8.5 8.248 9.625c.278.172.508.32.508.328 0 .01-.087.194-.192.41-.23.474-.31.759-.435 1.545-.052.33-.154.834-.225 1.121-.07.288-.2.916-.289 1.399-.21 1.139-.431 1.823-.879 2.709l-.365.72-.555.215a8.492 8.492 0 0 1-.591.215c-.055 0-2.086-4.042-2.086-4.152 0-.054-.06-.265-.133-.47-.188-.527-.386-1.377-.488-2.104a18.639 18.639 0 0 0-.254-1.334 17.464 17.464 0 0 1-.266-1.536c-.101-.834-.241-4.018-.184-4.17.003-.006.01-.009.018-.007zm19.006.778c.043-.001 1.365 2.27 1.617 2.775.378.76 1.522 3.617 1.686 4.211.017.062-.123.208-.375.393-.888.648-2.698 2.584-3.909 4.18-.161.213-.31.387-.332.388-.021.002-.174-.282-.337-.633-.68-1.452-.983-3-.983-4.98 0-1.089.027-1.416.176-2.254.096-.539.253-1.27.351-1.625l.178-.646.432-.284c.62-.408.973-.74 1.234-1.158.126-.201.244-.367.262-.367zm12.33 0c.025 0 .134.151.242.334.234.397.743.877 1.278 1.207.374.231.392.256.521.69.396 1.329.586 2.664.586 4.136 0 2.09-.379 3.852-1.121 5.223a3.037 3.037 0 0 1-.213.361c-.01 0-.116-.14-.238-.31a9.572 9.572 0 0 0-.518-.641c-.366-.411-.475-.54-1.22-1.434-.699-.836-1.434-1.566-2.079-2.058a36.71 36.71 0 0 1-.513-.397c-.073-.061.627-1.987 1.238-3.406.259-.602.732-1.542 1.053-2.09.32-.547.662-1.136.76-1.306.097-.171.198-.31.224-.309zm-6.18 1.772c.037.027.126.282.213.623.1.388.293 1.074.428 1.523.356 1.188.549 1.955.504 2-.022.021-.122.012-.223-.023-.126-.045-.274-.042-.476.013v.002a8.12 8.12 0 0 0-.391.113c-.054.02-.176-.005-.27-.054-.191-.101-.523-.125-.789-.057l-.177.045.164-.611c.09-.336.278-.994.416-1.461.137-.467.315-1.112.396-1.436.082-.323.169-.628.194-.676.003-.005.006-.005.011-.001zm-9.642 1.035c.025 0 .027.065.006.146-.023.081-.106.544-.186 1.03-.176 1.07-.208 3.375-.06 4.33.048.316.075.59.058.607-.017.017-.145-.11-.285-.281-.495-.608-2.545-2.614-2.951-2.887a17.68 17.68 0 0 0-.832-.522l-.42-.242.668-.306a54.394 54.394 0 0 1 1.707-.729c.571-.232 1.311-.586 1.644-.785.333-.199.626-.361.65-.361zm19.322.02c.016-.017.288.128.605.32.563.338 1.043.562 2.047.955.27.105.832.347 1.25.537l.76.343-.596.36c-.328.197-.713.447-.857.556-.365.279-1.409 1.305-2.272 2.233-.4.43-.746.79-.767.8-.021.01-.003-.226.04-.523.215-1.451.175-3.251-.108-4.826-.072-.4-.118-.74-.102-.756zm-25.37 3.177.513.258c.786.395 1.68 1.022 2.334 1.636.822.774 2.439 2.18 3.03 2.637.272.21.523.443.555.522.299.712.604 1.365.854 1.816.164.297.284.578.266.625-.039.1-.179.112-.268.023-.093-.092-1.856-.958-2.125-1.042-.166-.053-.312-.18-.508-.448-.335-.457-1.994-2.372-2.756-3.181a10.628 10.628 0 0 1-1.636-2.334l-.258-.512zm31.343.064c.008 0 .011.001.011.006 0 .097-.541 1.07-.873 1.567-.18.27-.493.665-.699.88-.205.216-.59.646-.853.956-.264.31-.746.865-1.069 1.232-.323.367-.761.891-.972 1.166-.366.476-.411.512-.948.734-.622.259-1.061.476-1.57.776-.627.37-.647.233-.111-.79.233-.444.503-1.005.6-1.247.144-.366.228-.481.501-.682.181-.133.587-.465.9-.736.314-.272.876-.756 1.249-1.076a37.6 37.6 0 0 0 1.168-1.051c.269-.257.724-.625 1.011-.819.57-.383 1.536-.915 1.655-.916zm-32.358 1.313.242.42c.134.23.37.604.522.828.274.403 1.787 1.968 2.736 2.828l.49.443-.326-.04c-1.68-.217-3.31-.213-4.703.015-.43.07-.864.149-.963.174-.099.025-.18.026-.18.002 0-.025.163-.318.362-.65.199-.334.552-1.074.785-1.645.233-.571.56-1.34.729-1.707l.306-.668zm33.399.086c.103-.001.463.759 1.006 2.123.36.907.593 1.389.97 2.006.142.231.259.436.26.455-.001.04-.04.033-1.014-.143-1.431-.259-3.202-.276-4.865-.047l-.293.041.229-.242c.125-.133.429-.407.673-.611.807-.673 2.264-2.29 2.623-2.91.18-.31.357-.608.393-.662a.02.02 0 0 1 .018-.01zm-16.672.36c.387.006 1.15.1 1.176.142.016.027-.07.455-.194.953-.297 1.196-.788 3.683-.887 4.482-.043.35-.087.637-.097.637-.01 0-.052-.258-.094-.572-.104-.785-.614-3.375-.889-4.51-.124-.514-.213-.958-.195-.986.03-.048.874-.152 1.18-.147zm2.402.663c.107 0 .818.585 1.322 1.09.44.44.843.943 2.078 2.592.293.39.696 1.062.696 1.158 0 .234-1.587 1.904-2.742 2.885a31.717 31.717 0 0 0-1.686 1.603l-1 1.024.035-.426c.02-.233.064-.673.1-.978.036-.306.095-1.364.13-2.352.037-.988.097-2.046.135-2.352.148-1.183.82-4.244.932-4.244zm-4.836.024c.02-.001.035.002.045.013.147.162.795 3.255.916 4.371.035.324.08 1.118.102 1.764.044 1.366.137 2.774.236 3.547.038.299.058.555.043.57-.015.015-.452-.403-.97-.927a42.21 42.21 0 0 0-1.692-1.616 63.919 63.919 0 0 1-1.201-1.086c-.527-.496-1.543-1.69-1.543-1.816 0-.133.483-.932.802-1.326.157-.194.547-.703.866-1.133.798-1.076 2.105-2.35 2.396-2.361zm17.877 4.384c1.342.01 2.704.21 3.961.59.529.16.53.16.781.569.339.549.703.935 1.16 1.232l.38.246-.25.158c-1.902 1.212-3.18 1.833-5.694 2.762-.624.23-1.14.418-1.145.418-.005 0-.169-.212-.365-.473-.196-.26-.592-.719-.88-1.02-.488-.507-2.26-2.048-3.19-2.773-.222-.173-.412-.336-.422-.363-.026-.071 1.177-.63 1.764-.818.277-.09.966-.242 1.533-.34a13.404 13.404 0 0 1 2.367-.188zm-30.824.012c1.077 0 1.426.025 2.254.168.539.093 1.228.248 1.533.344.566.177 1.831.738 1.826.808-.001.022-.175.173-.388.334-1.59 1.207-3.525 3.014-4.18 3.905-.162.22-.308.4-.326.398-.221-.013-3.517-1.326-4.278-1.705-.506-.251-2.775-1.576-2.775-1.619 0-.018.166-.136.367-.262.418-.26.75-.615 1.158-1.234l.284-.43.646-.18a22.263 22.263 0 0 1 1.625-.351c.838-.149 1.165-.175 2.254-.176zm23.75 2.25.47.28c.26.153.698.456.975.673.277.218.8.614 1.158.881.993.738 2.367 2.194 2.207 2.34-.07.064-1.538.41-2.73.645-1.288.252-1.936.316-4.049.398-.97.038-2.116.11-2.547.162-.43.052-.826.097-.879.098-.052 0 .432-.536 1.078-1.192a50.7 50.7 0 0 0 1.749-1.857c.638-.74 1.578-1.656 2.175-2.121l.393-.307zm-16.762.057c.232 0 1.908 1.556 2.742 2.547.197.233.901.975 1.565 1.648 1.128 1.145 1.194 1.225 1.008 1.225-.11 0-.211-.012-.227-.028-.052-.051-2.502-.227-3.717-.265a31.732 31.732 0 0 1-1.795-.102c-1.12-.122-4.21-.769-4.37-.916-.176-.159 1.2-1.59 2.347-2.441.43-.32.94-.709 1.133-.865.377-.307 1.19-.803 1.314-.803zm-14.787.98c.042 0 .113.044.158.098.24.29 2.435 1.581 3.461 2.037.413.184 1.14.488 1.617.678.477.19.845.366.817.392-.067.063-1.275.397-2.336.649a26.62 26.62 0 0 1-2.973.517v.002c-.341.04-.74.085-.888.104-.263.033-.275.027-.442-.258-.417-.712-.464-1.682-.135-2.77.188-.62.6-1.449.721-1.449zm46.348.032c.022-.007.039-.006.049 0 .119.073.5.889.687 1.47.146.456.178.683.184 1.274.006.654-.01.752-.174 1.107-.1.215-.228.442-.285.506-.058.064-.137.113-.176.11-1.258-.125-2.83-.369-3.774-.587-.55-.127-2.358-.604-2.601-.687-.054-.018.431-.248 1.078-.508s1.463-.61 1.813-.775c.728-.346 2.496-1.399 2.904-1.73.113-.093.228-.162.295-.18zm-23.174.572c.013-.013.06.178.105.422.076.405.512 1.757.758 2.345.077.185.116.222.16.15a.584.584 0 0 0 .059-.257c0-.145.106-.22.867-.617a22.564 22.564 0 0 0 1.293-.725c.438-.279.715-.402.715-.316 0 .06-.316.613-.426.744-.045.054-.235.393-.424.752-.68 1.298-.708 1.338-.914 1.338-.103 0-.203.025-.222.056-.031.05.122.13.68.35.427.17 1.322.446 1.763.547.538.123.526.142-.195.289-.518.105-2.257.739-2.24.816.007.036.11.08.226.098.195.03.246.098.65.85.242.449.592 1.073.78 1.388.187.315.323.591.3.614-.022.022-.298-.112-.613-.3-.315-.187-.941-.539-1.39-.78-.752-.405-.818-.456-.848-.65-.018-.117-.062-.22-.098-.227-.077-.017-.713 1.723-.818 2.24-.147.721-.165.733-.287.195-.1-.44-.378-1.333-.547-1.762-.22-.557-.3-.712-.35-.681-.03.019-.056.12-.056.222 0 .206-.04.234-1.338.914-.36.189-.698.38-.752.424-.131.11-.684.426-.744.426-.086 0 .037-.275.316-.713.15-.236.476-.819.725-1.295.397-.76.472-.866.617-.867.09 0 .205-.026.256-.059.07-.044.035-.083-.155-.162-.5-.209-1.974-.688-2.386-.775l-.424-.088.39-.082c.392-.08 2.128-.641 2.463-.795.222-.102.175-.193-.1-.193-.201 0-.222-.03-.714-.963-.28-.53-.625-1.152-.768-1.383-.263-.426-.303-.527-.207-.527.03 0 .244.117.475.26.231.142.853.488 1.383.767.932.492.963.515.963.717 0 .3.096.314.216.033.224-.52.635-1.782.73-2.238.056-.264.113-.49.126-.502zm-15.752 3.71-.045.178c-.068.268-.043.603.06.811.08.161.08.217 0 .408a1.17 1.17 0 0 0-.064.77c.04.15.03.18-.072.176-.133-.006-1.058-.257-2.082-.567-.36-.108-.97-.279-1.36-.379-.388-.1-.666-.202-.619-.226.048-.024.35-.11.674-.192.323-.081.969-.26 1.436-.398a82.424 82.424 0 0 1 1.46-.414l.612-.166zm31.527.005.606.162c.333.09.988.277 1.455.414a47.91 47.91 0 0 0 1.437.398c.555.14.863.25.717.256-.107.005-1.88.486-2.99.81-.568.167-1.074.301-1.123.301-.069 0-.08-.078-.053-.345.026-.254.006-.406-.074-.56-.104-.2-.103-.23 0-.5.08-.208.1-.382.068-.614l-.043-.322zm-29.511.021c.028-.017.472.07.986.193 1.135.275 3.725.785 4.51.89.314.041.572.085.572.095 0 .01-.287.053-.637.096-.8.098-3.286.589-4.484.886-1.055.262-.95.248-.983.145-.027-.09-.113-.918-.113-1.127-.003-.32.102-1.149.149-1.178zm27.293.014c.253-.02.249.094.253.406.003.165.033.394.067.508.039.13.039.31 0 .482a2.873 2.873 0 0 0-.067.512c-.002.13-.018.287-.035.35-.038.142-.03.143-.902-.086-.973-.256-3.775-.815-4.537-.907-.34-.04-.628-.085-.64-.097-.013-.013.236-.057.552-.1.857-.116 3.449-.63 4.518-.896.393-.098.638-.16.79-.172zm10.06 2.17.22.459c.14.29.237.61.264.869.083.785-.185 1.944-.636 2.756-.119.213-.244.395-.278.404-.033.009-.204-.1-.38-.244-.467-.379-2.282-1.445-3.04-1.785-.877-.395-2.584-1.08-2.689-1.08-.412 0 1.054-.437 2.717-.809a31.28 31.28 0 0 1 3.414-.53l.408-.04zm-47.24.039.418.021c.663.032 2.307.265 3.127.444.981.213 3.004.754 3.004.802 0 .021-.405.198-.899.393-.493.195-1.239.508-1.658.695-.849.38-2.73 1.475-3.201 1.865-.168.14-.322.254-.342.254-.056 0-.362-.503-.498-.82-.312-.728-.413-1.22-.418-1.996-.003-.747-.001-.764.23-1.207l.237-.451zm20.756.025-1.024 1a31.714 31.714 0 0 0-1.603 1.686c-.732.861-1.668 1.804-2.317 2.334-.275.224-.54.408-.588.406-.111-.005-.849-.463-1.228-.762a92.563 92.563 0 0 0-1.145-.867 15.647 15.647 0 0 1-1.357-1.143c-.506-.504-1.092-1.212-1.092-1.32 0-.112 3.063-.786 4.246-.933.306-.038 1.364-.1 2.352-.135.988-.036 2.046-.095 2.351-.131.306-.036.745-.08.979-.1l.426-.035zm5.912.008c.088 0 .506.043.928.096.42.052 1.61.126 2.644.164 2.029.073 2.395.11 3.74.365.867.164 2.817.609 2.868.654.014.013-.056.149-.157.301-.325.491-1.418 1.554-2.156 2.098-.395.29-.93.697-1.191.904-.261.207-.662.48-.89.607-.227.128-.439.23-.472.23-.157 0-1.518-1.248-2.246-2.06-.449-.5-1.36-1.46-2.023-2.134-1.002-1.018-1.179-1.225-1.045-1.225zm11.656 1.787a.049.049 0 0 1 .03 0c.894.278 3.21 1.2 4.152 1.652.555.268 2.84 1.598 2.84 1.655 0 .018-.133.103-.295.19-.402.212-.939.767-1.239 1.28-.236.405-.266.431-.615.528-.201.056-.41.117-.465.135-.21.07-1.049.234-1.797.353-.966.154-2.938.165-3.884.02-1.405-.216-2.65-.6-3.393-1.047l-.291-.176.186-.135c.216-.157.415-.322 1.943-1.613 1.244-1.052 1.71-1.516 2.338-2.33.245-.319.408-.489.49-.512zm-15.756.01-.043.326c-.103.799-.23 2.587-.265 3.756-.06 1.938-.22 3.05-.762 5.322-.112.467-.224.872-.25.9-.07.077-.747-.448-1.338-1.037-.285-.283-.814-.909-1.176-1.39-.361-.481-.75-.997-.865-1.147-.115-.15-.342-.49-.502-.756l-.291-.482.305-.39c.464-.597 1.381-1.539 2.12-2.176a52.854 52.854 0 0 0 1.866-1.75l1.201-1.176zm-13.576.004c.018-.002.03 0 .033.004.027.03.205.262.397.513.492.645 1.222 1.38 2.058 2.078a46.69 46.69 0 0 1 1.434 1.221c.182.162.47.395.64.518.171.122.311.23.311.242 0 .011-.155.1-.344.2-1.001.521-1.853.785-3.248 1.001-1.089.169-2.972.168-4.054-.004a15.476 15.476 0 0 1-2.092-.457c-.413-.122-.442-.145-.672-.517-.33-.535-.81-1.044-1.207-1.278-.183-.108-.334-.216-.334-.242 0-.025.138-.125.309-.223.17-.097.758-.44 1.306-.761.548-.32 1.488-.794 2.09-1.053 1.33-.572 3.106-1.223 3.373-1.242zm15.727.12c.061-.024.362.248 1.212 1.087a67.131 67.131 0 0 0 2.045 1.933 15.43 15.43 0 0 1 1.924 2.004l.254.319-.193.367a6.802 6.802 0 0 1-.516.795c-.178.233-.622.82-.988 1.304-.665.882-1.476 1.732-2.078 2.18-.176.13-.339.238-.364.238-.054 0-.47-1.751-.689-2.898-.246-1.293-.292-1.758-.361-3.73-.036-1.006-.107-2.187-.16-2.624a16.387 16.387 0 0 1-.098-.945c0-.015.003-.026.012-.03zm-1.086 4.69c.012.013.057.301.097.64.095.788.59 3.284.887 4.466.25.999.248 1.013-.174 1.008a2.619 2.619 0 0 0-.46.04l-.321.067a.773.773 0 0 1-.295-.039 2.213 2.213 0 0 0-.496-.064c-.5-.009-.496.003-.234-1.047.265-1.069.78-3.66.896-4.518.043-.316.087-.565.1-.553zm-8.266.477c.04-.004.062.003.078.02.061.06.064.11.008.199a16.919 16.919 0 0 0-.924 1.828c-.23.558-.26.597-.74.965-.275.21-.8.647-1.168.97-.367.324-.92.805-1.23 1.069-.31.264-.74.648-.956.853-.444.424-1.133.899-1.882 1.299-.282.15-.536.273-.565.273-.078 0 .501-1.059.91-1.666.194-.287.562-.742.819-1.011.257-.27.73-.796 1.05-1.168.321-.373.805-.935 1.077-1.248.271-.314.602-.718.734-.899.19-.26.32-.358.617-.474.207-.081.78-.356 1.274-.61.534-.275.78-.388.898-.4zm16.477.002c.093-.013.356.101.943.404a16.93 16.93 0 0 0 1.264.6c.3.112.408.2.636.511.333.454 1.985 2.363 2.754 3.182.306.325.712.822.903 1.104.33.489.927 1.538.927 1.63 0 .08-.094.043-.588-.224a10.562 10.562 0 0 1-2.191-1.56c-.814-.766-2.726-2.42-3.182-2.755-.31-.227-.397-.338-.51-.638-.074-.2-.343-.77-.597-1.266-.344-.672-.444-.92-.389-.974a.049.049 0 0 1 .03-.014zm-30 .55c.03 0 .295.091.584.202.478.182.542.228.72.517.21.341.64 1.327.815 1.868.059.182.179.724.265 1.207.087.482.23 1.185.319 1.562.09.377.183.847.207 1.045.068.56.22 1.099.43 1.512.105.208.19.39.19.406 0 .015-.21.152-.468.305-1.028.61-2.687 1.827-3.998 2.931a33.915 33.915 0 0 0-1.781 1.61c-.514.517-.67.644-.694.554-.032-.125.053-2.732.116-3.529a17.08 17.08 0 0 1 .39-2.416c.084-.341.175-.811.2-1.045.113-1.063.586-2.622 1.113-3.662.208-.411.639-1.269.957-1.906.318-.638.603-1.16.635-1.16zm43.6.012c.013.014.217.42.454.905.237.484.478.968.535 1.076.693 1.297.903 1.75 1.122 2.418.27.826.495 1.782.564 2.383.023.197.113.668.2 1.046.25 1.098.35 1.896.425 3.362.038.754.062 1.663.05 2.017l-.02.645-.358-.412c-.31-.358-2.425-2.218-3.264-2.871-.58-.453-2.204-1.584-2.73-1.903-.297-.18-.54-.337-.54-.351 0-.014.103-.259.23-.545.153-.35.273-.774.36-1.293.073-.425.187-1.008.256-1.295.07-.287.2-.92.287-1.404.197-1.085.401-1.713.868-2.655l.359-.726.588-.211c.323-.116.6-.2.613-.186zm-2.934.92c.012.012-.084.199-.213.412a12.324 12.324 0 0 0-.93 1.907c-.103.278-.371.917-.596 1.42-.224.502-.417.925-.427.937-.01.012-.084-.106-.162-.262-.412-.815-.882-1.405-2.01-2.529-.635-.633-1.295-1.265-1.465-1.404-.17-.14-.31-.27-.31-.295 0-.024.242-.009.538.035 1.45.214 3.252.172 4.827-.111.399-.072.736-.122.748-.11zm-37.703.008c.122.009.39.048.689.102 1.575.283 3.375.325 4.826.111.297-.044.533-.064.524-.043-.01.02-.385.38-.834.799-.963.896-1.921 1.873-2.2 2.24-.109.144-.36.53-.556.857l-.358.596-.316-.693c-.174-.382-.47-1.08-.658-1.551-.39-.976-.591-1.39-.96-1.973-.142-.226-.244-.424-.226-.441.005-.004.028-.007.069-.004zm26.277.08.176.291c.266.444.689 1.575.826 2.207.517 2.39.433 4.783-.254 7.227-.071.253-.179.487-.24.523-.8.468-1.351.964-1.604 1.44-.085.16-.169.29-.187.29-.057 0-1.387-2.284-1.655-2.84-.453-.94-1.376-3.257-1.654-4.152-.02-.067.148-.237.512-.517.814-.628 1.28-1.095 2.332-2.34 1.29-1.528 1.456-1.727 1.613-1.943l.135-.186zm-14.926.041c.027.01.19.2.363.422.647.83 1.957 2.358 2.498 2.916.308.318.81.772 1.116 1.008l.605.47c.045.039-.604 1.909-.896 2.583-.063.143-.217.51-.342.816-.281.688-.685 1.46-1.385 2.645-.297.502-.575.95-.617.994-.059.061-.112.016-.233-.194-.243-.423-.7-.874-1.226-1.207l-.483-.304-.158-.526c-.607-2.008-.75-4.288-.4-6.324.097-.567.25-1.258.34-1.535.189-.587.747-1.79.818-1.764zm-2.342 2.957-.04.293c-.222 1.605-.213 3.36.023 4.768.075.448.153.882.174.963v.002c.048.192-.004.18-.434-.092-.555-.35-1.158-.643-2.037-.992-1.454-.578-2.221-.95-2.112-1.024.055-.036.353-.21.663-.39.62-.36 2.237-1.819 2.91-2.625.204-.245.478-.549.611-.674l.242-.229zm19.64.033c.029 0 .165.14.304.31.138.172.77.83 1.402 1.466 1.123 1.128 1.716 1.596 2.531 2.008.156.078.274.151.262.162-.07.057-1.929.865-2.357 1.023-.546.202-1.374.599-1.786.858h-.002c-.387.243-.546.322-.546.265 0-.028.058-.374.13-.77a15.06 15.06 0 0 0 .204-3.75c-.044-.595-.104-1.193-.135-1.327-.03-.135-.034-.245-.006-.245zm-9.814 2.899c.067 0 .124.025.223.076.155.08.305.1.559.074.244-.025.347-.013.347.041 0 .1-.424 1.649-.521 1.905-.041.107-.193.651-.338 1.209a19.3 19.3 0 0 1-.285 1.037c-.013.012-.052-.09-.088-.229-.33-1.265-.432-1.64-.596-2.18a46.98 46.98 0 0 1-.351-1.226l-.162-.606.322.043c.232.031.406.013.613-.066.135-.052.21-.078.277-.078zm2.352 1.334c.013-.004.02.019.02.07 0 .105.683 1.812 1.078 2.69.338.752 1.397 2.554 1.8 3.064.264.333.27.352.15.441-.435.328-1.426.695-2.148.797-.787.113-1.252.049-1.851-.254l-.408-.205.04-.406c.119-1.175.321-2.478.53-3.41.325-1.455.7-2.76.789-2.787zm-4.664.074c.003 0 .005 0 .006.004.083.243.56 2.052.687 2.602.187.806.371 1.936.489 2.98.11.988.119.967-.471 1.228-.654.29-1.613.285-2.53-.017-.507-.167-1.302-.549-1.369-.656-.023-.039.057-.193.18-.344.332-.408 1.385-2.176 1.73-2.904.166-.35.516-1.166.776-1.813.244-.606.46-1.069.502-1.08zm19.344 1.18c.013 0 .135.183.27.408 1.009 1.688 3.703 5.092 4.84 6.113l.442.397-1.044-.008c-2.305-.02-3.567-.145-5.135-.514-.454-.106-.925-.193-1.047-.193-.315 0-1.468-.274-2.3-.547-.606-.199-1.06-.413-2.36-1.107a63.319 63.319 0 0 0-1.076-.536c-.484-.236-.89-.441-.905-.455-.013-.013.07-.288.186-.611l.209-.588.728-.361c.942-.466 1.57-.671 2.655-.867a31.39 31.39 0 0 0 1.404-.286c.287-.07.87-.185 1.295-.257.519-.088.943-.206 1.293-.36.286-.126.53-.228.545-.228zm-34.123.031c.023-.014.276.074.562.197.338.146.792.272 1.293.358.425.072.937.175 1.139.226.202.052.845.184 1.428.295 1.278.244 1.849.426 2.794.895l.717.355.217.59c.12.325.209.6.197.611-.02.02-2.011 1.02-3.22 1.618-.99.488-2.8 1.027-3.455 1.027-.126 0-.59.089-1.032.197a19.6 19.6 0 0 1-1.785.324c-1.079.14-4.345.26-4.34.159.002-.033.15-.171.328-.31.288-.221.992-1.004 2.426-2.694.525-.62 1.892-2.523 2.356-3.28.183-.298.351-.554.375-.568zm-1.862.633c.037.036-.966 1.545-1.902 2.861-.99 1.392-1.795 2.384-2.34 2.887-.265.245-.535.44-.601.435a6.435 6.435 0 0 1-.79-.125c-.316-.064-.344-.086-.406-.31a4.896 4.896 0 0 1-.11-.639l-.04-.396.416-.444c.42-.45.886-.848 1.887-1.613 1.09-.833 3.834-2.709 3.886-2.656zm37.87.01c.051-.052 2.51 1.625 3.831 2.613.69.515 1.383 1.1 1.75 1.476l.61.623-.04.295c-.021.162-.07.447-.107.633l-.066.338-.338.066v.002a14.13 14.13 0 0 1-.633.106l-.295.039-.623-.607c-.376-.368-.963-1.063-1.478-1.752-.988-1.322-2.663-3.78-2.612-3.832z" transform="scale(.26458)"/></svg>